<?xml version="1.0" encoding="utf-8"?>
<!-- Generator: Adobe Illustrator 21.0.2, SVG Export Plug-In . SVG Version: 6.00 Build 0)  -->
<svg version="1.1" id="Layer_1" xmlns="http://www.w3.org/2000/svg" xmlns:xlink="http://www.w3.org/1999/xlink" x="0px" y="0px"
	 viewBox="0 0 56.2 56.2" style="enable-background:new 0 0 56.2 56.2;" xml:space="preserve">
<style type="text/css">
	.st0{fill:#6C7138;}
</style>
<title>sundae-sketch</title>
<polygon class="st0" points="47,29.4 44.2,29.4 44.2,26.5 40.7,26.5 40.7,29.4 37.9,29.4 37.9,33.2 40.7,33.2 40.7,36.1 44.2,36.1 
	44.2,33.2 47,33.2 "/>
<path class="st0" d="M7.9,32.1c0.8-1.9,1.7-3.7,2.8-5.5c0.6-0.9,1.3-1.8,2-2.5c0.4-0.4,0.9-0.8,1.3-1.1c0.6-0.4,1.3-0.6,2-0.7
	c0.8,0,1.5,0.2,2.1,0.7c0.6,0.4,1,0.9,1.4,1.5c0.3,0.6,0.5,1.4,0.4,2.1c0,0.6-0.2,1.2-0.5,1.8c-0.4,1-1,1.9-1.7,2.7
	c-0.6,0.7-1.1,1.4-1.6,2.1c-0.3,0.6-0.2,1.1,0.1,1.3c0.2,0.1,0.5,0.1,0.7,0c0.4-0.1,0.7-0.3,1-0.5c0.7-0.6,1.2-1.2,1.7-2
	c0.3-0.4,0.5-0.8,0.8-1.3c0.3-0.5,0.8-1,1.3-1.3c0.5-0.2,1.1-0.3,1.6-0.1c0.2,0,0.3,0.1,0.5,0.1c0.7,0.3,1.2,0.8,1.4,1.5
	c0.2,1,0.3,2.1,0.3,3.1c-0.2,1.7,1.9,2.5,3.6,2.9l0,0c0.3,0.1,0.5,0.3,0.4,0.6c-0.1,0.3-0.3,0.5-0.6,0.4c-1.1-0.2-2.1-0.5-3-1
	c-0.5-0.3-0.9-0.7-1.3-1.1c-0.2-0.3-0.3-0.5-0.4-0.8c0-0.2-0.1-0.3-0.1-0.5v-0.4c0-0.9-0.1-1.9-0.3-2.8c-0.1-0.3-0.3-0.5-0.6-0.6
	c-0.1-0.1-0.3-0.1-0.5-0.1c-0.1,0-0.1,0-0.2,0c-0.1,0-0.1,0-0.1,0.1c-0.3,0.2-0.5,0.5-0.7,0.8c-0.2,0.4-0.5,0.8-0.7,1.2
	c-0.5,1-1.2,1.8-2,2.5c-0.5,0.4-1,0.7-1.6,0.9c-0.7,0.2-1.5,0.2-2.1,0c-0.7-0.3-1.3-1-1.4-1.8c-0.1-0.7,0-1.4,0.2-2
	c0.3-0.5,0.6-1,1-1.5c0.3-0.4,0.6-0.8,0.8-1.2c0.5-0.7,1-1.5,1.3-2.3c0.3-0.6,0.3-1.2,0-1.8c-0.2-0.4-1.1-0.9-1.2-0.8
	c-0.6,0.2-1.1,0.6-1.5,1.1c-0.6,0.7-1.1,1.4-1.5,2.2c-0.9,1.6-1.7,3.3-2.4,5.1l0,0c-0.3,0.8-1.2,1.3-2,1S7.5,33,7.9,32.1L7.9,32.1
	L7.9,32.1z"/>
</svg>
