<?xml version="1.0" encoding="utf-8"?>
<!-- Generator: Adobe Illustrator 21.0.2, SVG Export Plug-In . SVG Version: 6.00 Build 0)  -->
<svg version="1.1" id="Layer_1" xmlns="http://www.w3.org/2000/svg" xmlns:xlink="http://www.w3.org/1999/xlink" x="0px" y="0px"
	 viewBox="0 0 56.2 56.2" style="enable-background:new 0 0 56.2 56.2;" xml:space="preserve">
<style type="text/css">
	.st0{fill:#F2F4DB;stroke:#6C7138;stroke-width:0.5;stroke-linecap:round;}
	.st1{fill:#6C7138;}
</style>
<title>sundae-sketch</title>
<path class="st0" d="M16.3,27.1c0.8,0.2,1.5,0.7,1.9,1.4c0.5,0.7,0.5,1.6,0.2,2.3c-0.7,0.9-1.8,1.4-3,1.2c-0.9,0-1.7-0.2-2.5-0.6
	s-1.3-1.1-1.5-2c-0.2-1.1,0.5-2.2,1.5-2.6c1.1-0.3,2.3-0.1,3.3,0.6c0.5,0.2,0.8,0.6,1,1.1"/>
<path class="st0" d="M16.3,27.1c0.8,0.2,1.5,0.7,1.9,1.4c0.5,0.7,0.5,1.6,0.2,2.3c-0.7,0.9-1.8,1.4-3,1.2c-0.9,0-1.7-0.2-2.5-0.6
	s-1.3-1.1-1.5-2c-0.2-1.1,0.5-2.2,1.5-2.6c1.1-0.3,2.3-0.1,3.3,0.6c0.5,0.2,0.8,0.6,1,1.1"/>
<path class="st0" d="M19.6,24c0,1.3-2,2.8-3.2,2.9"/>
<rect x="33.3" y="23.2" class="st1" width="9" height="4.2"/>
<rect x="33.3" y="28.7" class="st1" width="9" height="4.2"/>
</svg>
