<?xml version="1.0" encoding="utf-8"?>
<!-- Generator: Adobe Illustrator 21.0.2, SVG Export Plug-In . SVG Version: 6.00 Build 0)  -->
<svg version="1.1" id="Layer_1" xmlns="http://www.w3.org/2000/svg" xmlns:xlink="http://www.w3.org/1999/xlink" x="0px" y="0px"
	 viewBox="0 0 56.2 56.2" style="enable-background:new 0 0 56.2 56.2;" xml:space="preserve">
<style type="text/css">
	.st0{fill:#F2F4DB;}
	.st1{fill:#F2F4DB;stroke:#6C7138;stroke-width:0.5;stroke-linecap:round;}
	.st2{fill:#6C7138;}
</style>
<path class="st0" d="M11.5,26.2l3.4,18.5l20.3-0.3l2.5-18.2L11.5,26.2z"/>
<path class="st1" d="M10.2,25.9L38.5,26 M11.7,27.5L14.9,44 M13.2,44.2L38,43.7 M35.5,42.3l1.8-16.5"/>
<path class="st1" d="M11.4,21.6l15.6,0.5c3.4,0.2,6.9,0.1,10.3-0.1c0,1.3,0,2.6,0.1,3.9C29.7,26,22.1,26,14.5,25.7
	c-0.7,0-2.2,0.5-2.7-0.3C11.4,24.1,11.3,22.9,11.4,21.6L11.4,21.6z"/>
<polygon class="st2" points="52.9,30.7 50.2,30.7 50.2,27.8 46.6,27.8 46.6,30.7 43.8,30.7 43.8,34.5 46.6,34.5 46.6,37.4 
	50.2,37.4 50.2,34.5 52.9,34.5 "/>
</svg>
