<?xml version="1.0" encoding="utf-8"?>
<!-- Generator: Adobe Illustrator 21.0.2, SVG Export Plug-In . SVG Version: 6.00 Build 0)  -->
<svg version="1.1" id="Layer_1" xmlns="http://www.w3.org/2000/svg" xmlns:xlink="http://www.w3.org/1999/xlink" x="0px" y="0px"
	 viewBox="0 0 56.2 56.2" style="enable-background:new 0 0 56.2 56.2;" xml:space="preserve">
<style type="text/css">
	.st0{fill:#F2F4DB;}
	.st1{fill:#F2F4DB;stroke:#6C7138;stroke-width:0.5;stroke-linecap:round;}
	.st2{fill:#6C7138;}
</style>
<title>sundae-sketch</title>
<metadata><?xpacket begin="﻿" id="W5M0MpCehiHzreSzNTczkc9d"?>
<x:xmpmeta xmlns:x="adobe:ns:meta/" x:xmptk="Adobe XMP Core 5.6-c137 79.159547, 2016/07/07-11:39:24        ">
   <rdf:RDF xmlns:rdf="http://www.w3.org/1999/02/22-rdf-syntax-ns#">
      <rdf:Description rdf:about=""
            xmlns:dc="http://purl.org/dc/elements/1.1/"
            xmlns:xmp="http://ns.adobe.com/xap/1.0/"
            xmlns:xmpMM="http://ns.adobe.com/xap/1.0/mm/"
            xmlns:stEvt="http://ns.adobe.com/xap/1.0/sType/ResourceEvent#">
         <dc:title>
            <rdf:Alt>
               <rdf:li xml:lang="x-default">sundae-sketch</rdf:li>
            </rdf:Alt>
         </dc:title>
         <xmp:Label>Approved</xmp:Label>
         <xmp:MetadataDate>2018-04-24T10:23:58-04:00</xmp:MetadataDate>
         <xmpMM:InstanceID>xmp.iid:c7ff7fc9-a101-49c7-a87d-de1b9996e59e</xmpMM:InstanceID>
         <xmpMM:DocumentID>xmp.did:c7ff7fc9-a101-49c7-a87d-de1b9996e59e</xmpMM:DocumentID>
         <xmpMM:OriginalDocumentID>xmp.did:c7ff7fc9-a101-49c7-a87d-de1b9996e59e</xmpMM:OriginalDocumentID>
         <xmpMM:History>
            <rdf:Seq>
               <rdf:li>
                  <rdf:Description>
                     <stEvt:action>saved</stEvt:action>
                     <stEvt:instanceID>xmp.iid:c7ff7fc9-a101-49c7-a87d-de1b9996e59e</stEvt:instanceID>
                     <stEvt:when>2018-04-24T10:23:58-04:00</stEvt:when>
                     <stEvt:softwareAgent>Adobe Bridge CC 2017 (Macintosh)</stEvt:softwareAgent>
                     <stEvt:changed>/metadata</stEvt:changed>
                  </rdf:Description>
               </rdf:li>
            </rdf:Seq>
         </xmpMM:History>
      </rdf:Description>
   </rdf:RDF>
</x:xmpmeta>
                                                                                                    
                                                                                                    
                                                                                                    
                                                                                                    
                                                                                                    
                                                                                                    
                                                                                                    
                                                                                                    
                                                                                                    
                                                                                                    
                                                                                                    
                                                                                                    
                                                                                                    
                                                                                                    
                                                                                                    
                                                                                                    
                                                                                                    
                                                                                                    
                                                                                                    
                                                                                                    
                           
<?xpacket end="w"?></metadata>
<path class="st0" d="M15.2,29.6l3.4,18.6l20.3-0.3l2.5-18.2H15.2z"/>
<path class="st1" d="M13.9,30l28.3,0.1 M15.4,31.6l3.2,16.6 M16.9,48.4l24.8-0.5 M39.2,46.5L41,30"/>
<path class="st1" d="M15.9,27l14.7-0.7c3.4,0.1,6,0.7,9.4,0.4c0,1.3,1,2,1,3.3c-7.6,0.2-15.3,0.1-22.9-0.1c-0.7,0-2.2,0.5-2.7-0.3
	c-0.3-0.8-0.3-1.6-0.2-2.4L15.9,27z"/>
<path class="st1" d="M14.5,27.9c0.5-2.1,2.9-3.7,5.6-3.8c1.7,0,3.4,0.2,5.1,0.7c1.9,0.4,3.7,0.7,5.6,0.9c1.2,0.1,1,0.5,2.1,0.2
	c5.1-1.2,1.3-2.9,2.7-4.4c1.4,1.1,8.6,5.4,4.7,9.4c-4.3,4.5-14.4-1-18.1-2C21.1,28.6,15.5,27.5,14.5,27.9"/>
<path class="st1" d="M15.9,25.1c0.5-2,1.5-6.5,5.2-6.2c1.5,0,3,0.2,4.5,0.6c1.7,0.3,3.3,0.6,5,0.8c1.1,0.1,0.9,0.5,1.9,0.2
	c4.6-1.3,1.2-2.9,2.5-4.4c1.2,1,7.6,5.2,4.1,9.2c-2.2,2.6-6.1,2.4-9.2,2c-2.4-0.4-4.6-1.1-7-1.6c-1.8-0.4-4.9-1.2-6.6-0.3"/>
<path class="st1" d="M38.4,17.7c0.7,1.6-1.1,2.8-2.8,3.1c-1.9,0.2-3.8,0-5.6-0.5c-3.7-0.8-7.5-1.5-10.9-1.1c0.6-1.8,2.1-3.1,3.9-3.6
	c3.5-1.2,2.9-0.2,5-3.1c1-1.4,3.2-1.9,3-0.8C30.4,15.5,38.1,15.5,38.4,17.7L38.4,17.7z"/>
<path class="st1" d="M34.3,9.2c0.8,0.2,1.5,0.7,1.9,1.4c0.5,0.7,0.5,1.6,0.2,2.3c-0.7,0.9-1.8,1.4-3,1.2c-0.9,0-1.7-0.2-2.5-0.6
	c-0.8-0.4-1.3-1.1-1.5-2C29.3,10.4,30,9.3,31,8.9c1.1-0.3,2.3-0.1,3.3,0.6c0.5,0.2,0.8,0.6,1,1.1"/>
<path class="st1" d="M37.5,6.1c0,1.3-2,2.8-3.2,2.9"/>
<path class="st2" d="M36.1,15.7c0.1,0.7,0.1,1.5-0.1,2.2c-0.2,0.7-0.6,1.3-1.2,1.8c-0.5,0.4-1.1,0.8-1.8,1c-0.7,0.2-1.3,0.4-2,0.6
	l0,0l0.1-1c0.5,0.2,0.9,0.4,1.2,0.8c0.4,0.4,0.6,0.9,0.6,1.5c0,0.9-0.4,1.8-1,2.5c-0.6,0.6-1.2,1.2-1.9,1.6c-0.7,0.5-1.5,0.8-2.4,1
	l0,0l0.4-0.3c0.1,0.6-0.2,1.2-0.6,1.6c-0.4,0.4-0.9,0.7-1.5,0.8c-0.5,0.1-1,0.1-1.5,0c-0.5-0.1-0.9-0.3-1.3-0.5
	c-0.3-0.1-0.4-0.5-0.2-0.7c0.1-0.2,0.2-0.3,0.4-0.3l0,0c0.4-0.1,0.8-0.1,1.2-0.2c0.3,0,0.7-0.1,1-0.2c0.3-0.1,0.5-0.2,0.8-0.4
	c0.3-0.1,0.6-0.3,0.9-0.4l0.4-0.3l0,0c0.6-0.3,1.2-0.6,1.8-1.1c0.6-0.4,1.1-0.9,1.6-1.5c0.4-0.4,0.7-1,0.8-1.6
	c0.1-0.4-0.4-1-0.9-1.3l-1.4-0.9H31l0,0c1.2,0,2.5-0.4,3.4-1.1c0.5-0.4,0.8-0.9,0.9-1.5c0.1-0.6,0.1-1.2-0.2-1.7l0,0
	c-0.1-0.2-0.1-0.6,0.2-0.7c0.2-0.1,0.6-0.1,0.7,0.2c0,0,0,0.1,0,0.1C36.1,15.6,36.1,15.7,36.1,15.7z"/>
<path class="st2" d="M37.6,20.3c0.3,0.6,0.5,1.3,0.6,2c0.1,0.7,0.2,1.4,0.1,2.2c-0.1,0.8-0.4,1.5-0.9,2.1c-0.5,0.6-1.2,1-1.9,1.2
	l0.2-0.8l0,0c0.5,0.4,0.9,0.9,1.1,1.5c0.3,0.7,0.3,1.5,0,2.1c-0.3,0.6-0.8,1.1-1.5,1.4c-0.5,0.3-1,0.5-1.5,0.6
	c-0.3,0.1-0.6-0.1-0.7-0.4c0-0.2,0-0.3,0.1-0.5c0.3-0.4,0.7-0.8,1.2-1.2c0.3-0.2,0.6-0.5,0.8-0.8c0.1-0.3,0.2-0.7,0.1-1
	c-0.1-0.4-0.2-0.8-0.4-1.2l0,0l-0.4-0.5l0.7-0.2c0.6-0.2,1.1-0.5,1.5-1c0.4-0.5,0.6-1,0.7-1.6c0.1-0.6,0-1.2-0.1-1.9
	c-0.1-0.6-0.3-1.2-0.6-1.8l0,0c-0.1-0.3,0-0.5,0.3-0.7C37.2,19.9,37.5,20,37.6,20.3L37.6,20.3z"/>
<path class="st2" d="M25.6,16.7c0.1,0.5,0.1,1.1,0.1,1.6c-0.1,0.6-0.5,1.1-1,1.3c-0.2,0.1-0.5,0.2-0.8,0.2c-0.1,0-0.2,0-0.3,0.1
	c-0.1,0-0.1,0-0.1,0.1c-0.2,0.2-0.2,0.6-0.2,0.9c0.1,1,0.1,1.9-0.1,2.9c-0.2,0.6-0.7,1.1-1.3,1.4c-0.3,0.1-0.6,0.1-0.9,0.2
	c-0.3,0-0.5,0-0.8-0.1l0.5-0.4l0,0c0.2,0.5,0.3,1,0.1,1.5c-0.1,0.5-0.3,1-0.7,1.3c-0.3,0.4-0.8,0.7-1.3,0.9
	c-0.5,0.2-1.1,0.1-1.5-0.2c0.3-0.3,0.5-0.6,0.8-1l0.4-0.8c0.1-0.3,0.3-0.6,0.5-0.8c0.2-0.3,0.5-0.6,0.8-0.9l0,0v-0.2l0.6-0.2
	c0.2-0.1,0.4-0.1,0.6-0.1c0.2-0.1,0.3-0.1,0.5-0.2c0.2-0.1,0.4-0.3,0.5-0.6c0.2-0.8,0.3-1.7,0.3-2.5c0-0.3,0.1-0.5,0.2-0.8
	c0.1-0.2,0.1-0.3,0.2-0.4c0.1-0.1,0.2-0.3,0.4-0.4c0.1-0.1,0.3-0.2,0.5-0.2c0.1,0,0.3-0.1,0.4-0.1c0.2,0,0.4-0.1,0.5-0.1
	c0.3-0.1,0.6-0.4,0.6-0.7c0.1-0.4,0-0.8-0.3-1.1c-0.2-0.2-0.2-0.5,0.1-0.7s0.5-0.2,0.7,0.1C25.6,16.5,25.6,16.6,25.6,16.7L25.6,16.7
	z"/>
<g>
	<path class="st0" d="M29.5,9.5c0,0,1.5,1.6,2.2,1.7c0.7,0.1,4.9,3,2.2,5.4c-2.6,2.4-3.6,1.6-4.4,1.2c-0.4-0.2-0.8-0.6-1.1-1
		c0,0-2.1,2.3-2.9,0.4c0,0-3.1,0.8-2.3-2.2s1.3-1.9,3.3-2.6c1.1-0.3,1.9-1.3,1.9-2.5L29.5,9.5z"/>
	<path class="st2" d="M35,13.6L35,13.6c-0.5-2.2-3.8-2.8-4.2-2.9l-0.1,0c-0.5-0.4-1-0.7-1.5-1c-0.3-0.2-0.5-0.2-0.6-0.2
		c-0.1,0-0.1,0.1-0.2,0.2c-0.9,2.3-1.8,2.5-2.7,2.6c-0.6,0.1-1.2,0.2-1.9,1.1c-0.6,0.9-0.8,2.1-0.5,3.2c0,0,0.1,0.1,0.2,0.1
		c0.1,0,0.1,0,0.2,0c0.1-0.1,0.2-0.2,0.1-0.3c-0.3-0.9-0.1-1.9,0.4-2.6c0.5-0.7,1-0.8,1.6-0.9c0.8-0.1,1.6-0.2,2.7-2.2l0.1-0.3
		l0.1,0.3c0.3,1,0.3,1.7-0.1,2.2c-0.3,0.4-0.7,0.6-1.3,0.7c-0.8,0-1.5,0.4-2.1,1c-0.3,0.5-0.4,1.1-0.3,1.6c0,0.1,0.1,0.1,0.1,0.2
		c0.1,0,0.1,0,0.2,0c0.1,0,0.2-0.1,0.2-0.3c-0.1-0.4,0-0.8,0.2-1.2c0.5-0.5,1.1-0.7,1.7-0.8c1.2-0.1,2.2-1.1,2.1-2.3
		c0-0.1,0-0.3-0.1-0.4c0-0.2-0.1-0.4-0.1-0.6l-0.1-0.3l0.3,0.2c0.5,0.3,0.9,0.7,1.3,1.1c0.8,0.8,0.9,2.1,0.3,3.1
		c0.1,0.1,0.3,0.3,0.4,0.4c0,0,0,0,0-0.1c0.7-1,0.7-2.3,0.1-3.3l-0.2-0.3l0.3,0.1c1,0.3,2.2,1,2.5,2.2c0.2,0.8,0.2,1.7-0.2,2.4l0,0
		c-0.1,0.1-0.1,0.3,0,0.4c0.1,0.1,0.3,0.1,0.4,0C35.1,15.7,35.2,14.6,35,13.6z"/>
	<g>
		<path class="st1" d="M23.6,16.5c0.4,0.4,1,0.4,1.4,0c0.1-0.1,0.1-0.2,0.2-0.2"/>
		<path class="st1" d="M34.4,16.4c0,0-3.9,3.4-6,0c0,0-0.3-1.2,1.5-1.2s1.6-0.3,1.6-0.3"/>
		<path class="st1" d="M28.4,17c-1.2,1.2-3.1-0.2-3.1-0.2"/>
	</g>
</g>
<path class="st1" d="M34.3,9.2c0.8,0.2,1.5,0.7,1.9,1.4c0.5,0.7,0.5,1.6,0.2,2.3c-0.7,0.9-1.8,1.4-3,1.2c-0.9,0-1.7-0.2-2.5-0.6
	c-0.8-0.4-1.3-1.1-1.5-2C29.3,10.4,30,9.3,31,8.9c1.1-0.3,2.3-0.1,3.3,0.6c0.5,0.2,0.8,0.6,1,1.1"/>
</svg>
