<?xml version="1.0" encoding="utf-8"?>
<!-- Generator: Adobe Illustrator 21.0.2, SVG Export Plug-In . SVG Version: 6.00 Build 0)  -->
<svg version="1.1" id="Layer_1" xmlns="http://www.w3.org/2000/svg" xmlns:xlink="http://www.w3.org/1999/xlink" x="0px" y="0px"
	 viewBox="0 0 56.2 56.2" style="enable-background:new 0 0 56.2 56.2;" xml:space="preserve">
<style type="text/css">
	.st0{fill:#F2F4DB;}
	.st1{fill:#6C7138;}
	.st2{fill:#F2F4DB;stroke:#6C7138;stroke-width:0.5;stroke-linecap:round;}
</style>
<path class="st0" d="M18.7,26c0,0,1.7,0.8,2.4,0.9s4.9,3,2.2,5.4s-3.6,1.6-4.4,1.2c-0.4-0.2-0.8-0.6-1.1-1c0,0-2.6,1.6-3.5-0.3
	c0,0-2.5,1.4-1.8-1.6s1.3-1.9,3.3-2.6c1.1-0.3,1.9-1.3,1.9-2.5L18.7,26z"/>
<polygon class="st1" points="42.7,28.8 39.9,28.8 39.9,25.8 36.3,25.8 36.3,28.8 33.5,28.8 33.5,32.5 36.3,32.5 36.3,35.4 
	39.9,35.4 39.9,32.5 42.7,32.5 "/>
<path class="st1" d="M24.3,29.4L24.3,29.4c-0.5-2.2-3.8-2.8-4.2-2.9l-0.1,0c-0.5-0.4-1-0.7-1.5-1c-0.3-0.2-0.5-0.2-0.6-0.2
	c-0.1,0-0.1,0.1-0.2,0.2c-0.9,2.3-1.8,2.5-2.7,2.6c-0.6,0.1-1.2,0.2-1.9,1.1c-0.6,0.9-0.8,2.1-0.5,3.2c0,0,0.1,0.1,0.2,0.1
	c0.1,0,0.1,0,0.2,0c0.1-0.1,0.2-0.2,0.1-0.3c-0.3-0.9-0.1-1.9,0.4-2.6c0.5-0.7,1-0.8,1.6-0.9c0.8-0.1,1.6-0.2,2.7-2.2l0.1-0.3
	l0.1,0.3c0.3,1,0.3,1.7-0.1,2.2c-0.3,0.4-0.7,0.6-1.3,0.7c-0.8,0-1.5,0.4-2.1,1c-0.3,0.5-0.4,1.1-0.3,1.6c0,0.1,0.1,0.1,0.1,0.2
	c0.1,0,0.1,0,0.2,0c0.1,0,0.2-0.1,0.2-0.3c-0.1-0.4,0-0.8,0.2-1.2c0.5-0.5,1.1-0.7,1.7-0.8c1.2-0.1,2.2-1.1,2.1-2.3
	c0-0.1,0-0.3-0.1-0.4c0-0.2-0.1-0.4-0.1-0.6l-0.1-0.3l0.3,0.2c0.5,0.3,0.9,0.7,1.3,1.1c0.8,0.8,0.9,2.1,0.3,3.1
	c0.1,0.1,0.3,0.3,0.4,0.4c0,0,0,0,0-0.1c0.7-1,0.7-2.3,0.1-3.3l-0.2-0.3l0.3,0.1c1,0.3,2.2,1,2.5,2.2c0.2,0.8,0.2,1.7-0.2,2.4l0,0
	c-0.1,0.1-0.1,0.3,0,0.4c0.1,0.1,0.3,0.1,0.4,0C24.5,31.5,24.6,30.4,24.3,29.4z"/>
<g>
	<path class="st2" d="M13,32.2c0.4,0.4,1,0.4,1.4,0c0.1-0.1,0.1-0.2,0.2-0.2"/>
	<path class="st2" d="M23.8,32.2c0,0-3.9,3.4-6,0c0,0-0.3-1.2,1.5-1.2s1.6-0.3,1.6-0.3"/>
	<path class="st2" d="M17.7,32.7c-1.2,1.2-3.1-0.2-3.1-0.2"/>
</g>
</svg>
