<?xml version="1.0" encoding="utf-8"?>
<!-- Generator: Adobe Illustrator 21.0.2, SVG Export Plug-In . SVG Version: 6.00 Build 0)  -->
<svg version="1.1" id="Layer_1" xmlns="http://www.w3.org/2000/svg" xmlns:xlink="http://www.w3.org/1999/xlink" x="0px" y="0px"
	 viewBox="0 0 56.2 56.2" style="enable-background:new 0 0 56.2 56.2;" xml:space="preserve">
<style type="text/css">
	.st0{fill:#F2F4DB;stroke:#6C7138;stroke-width:0.5;stroke-linecap:round;}
	.st1{fill:#6C7138;}
</style>
<path class="st0" d="M8.8,37.1c0.5-2.1,2.9-3.7,5.6-3.8c1.7,0,3.4,0.2,5.1,0.7c1.9,0.4,3.7,0.7,5.6,0.9c1.2,0.1,1,0.5,2.1,0.2
	c5.1-1.2,1.3-2.9,2.7-4.4c1.4,1,8.6,5.4,4.7,9.4c-4.3,4.5-14.4-1-18.1-2C15.3,37.7,9.7,36.6,8.8,37.1"/>
<path class="st0" d="M10.1,34.2c0.5-2,1.5-6.5,5.2-6.2c1.5,0,3,0.2,4.5,0.6c1.7,0.3,3.3,0.6,5,0.8c1.1,0.1,0.9,0.5,1.9,0.2
	c4.5-1.3,1.2-2.8,2.5-4.3c1.2,1,7.6,5.2,4.1,9.2C31,37,27.1,36.8,24,36.3c-2.4-0.4-4.6-1.1-7-1.6c-1.8-0.4-4.9-1.2-6.6-0.3"/>
<path class="st0" d="M32.7,26.8c0.7,1.6-1.1,2.8-2.8,3.1c-1.9,0.2-3.8,0-5.6-0.5c-3.7-0.8-7.5-1.5-10.9-1.1c0.6-1.7,2.1-3.1,3.9-3.6
	c3.5-1.2,2.9-0.2,5-3.1c1-1.4,3.2-1.9,3-0.8C24.6,24.6,32.3,24.7,32.7,26.8L32.7,26.8z"/>
<polygon class="st1" points="52.2,31.1 49.4,31.1 49.4,28.2 45.8,28.2 45.8,31.1 43,31.1 43,34.8 45.8,34.8 45.8,37.8 49.4,37.8 
	49.4,34.8 52.2,34.8 "/>
</svg>
