<svg id="Layer_1" data-name="Layer 1" xmlns="http://www.w3.org/2000/svg" viewBox="0 0 42 85.12"><title>handle</title><circle cx="21" cy="21" r="20" fill="#f2f4db" stroke="#89113a" stroke-width="2"/><path d="M13.86,18c-.37-2.17-.42-4.55.73-6.39a10.22,10.22,0,0,1,2.05-2.55,6.13,6.13,0,0,1,2.6-1.45,12.56,12.56,0,0,1,2.94,0A6.42,6.42,0,0,1,26.7,9.39,9.3,9.3,0,0,1,28.85,13c1.13,4.32-.26,9-2.86,12.53a7.7,7.7,0,0,1-3.91,3c-1.55.41-2.83-.57-4-1.66A15.85,15.85,0,0,1,13.86,18Z" transform="translate(0 -0.55)" fill="#fff" stroke="#6c7138"/><path d="M16.93,31.55c-.11.22-.22.54-.09.72a.33.33,0,0,0,.23.12c.75.09,1.46-.41,2.21-.51,1.65-.24,3.24,1.44,4.87,1a1.13,1.13,0,0,0,.87-.78A1.74,1.74,0,0,0,24.87,31a2.7,2.7,0,0,0-.69-.8,1.92,1.92,0,0,0-.91-.54,1.85,1.85,0,0,0-.77.08,6.82,6.82,0,0,1-3.38-.2C18,29.16,17.63,30.25,16.93,31.55Z" transform="translate(0 -0.55)" fill="none" stroke="#6c7138"/><path d="M17.67,14.36A4,4,0,0,0,19,17.47a4.44,4.44,0,0,0,2.54.6,4.59,4.59,0,0,0,1.81-.24c2.54-1,2.4-5.66,0-6.81-2.59-1.26-5.91.41-5.73,3.34Z" transform="translate(0 -0.55)" fill="#f2f4db" stroke="#a0a752"/><circle cx="21" cy="64.12" r="20" fill="#f2f4db" stroke="#6c7138" stroke-width="2"/><path d="M13.86,61.14c-.37-2.17-.42-4.55.73-6.39a10.22,10.22,0,0,1,2.05-2.55,6.25,6.25,0,0,1,2.6-1.46,13.12,13.12,0,0,1,2.94,0,6.42,6.42,0,0,1,4.52,1.81,9.3,9.3,0,0,1,2.15,3.56C30,60.39,28.59,65,26,68.6a7.7,7.7,0,0,1-3.91,3c-1.55.41-2.83-.58-4-1.66a15.85,15.85,0,0,1-4.25-8.84Z" transform="translate(0 -0.55)" fill="#fff" stroke="#6c7138"/><path d="M16.93,74.67c-.11.22-.22.54-.09.72a.31.31,0,0,0,.23.11c.75.1,1.46-.4,2.21-.51,1.65-.23,3.24,1.45,4.87,1.05a1.13,1.13,0,0,0,.87-.78,1.74,1.74,0,0,0-.15-1.19,2.7,2.7,0,0,0-.69-.8,1.92,1.92,0,0,0-.91-.54,1.85,1.85,0,0,0-.77.08,6.82,6.82,0,0,1-3.38-.2C18,72.28,17.63,73.37,16.93,74.67Z" transform="translate(0 -0.55)" fill="none" stroke="#6c7138"/><path d="M17.67,57.48A4,4,0,0,0,19,60.59a4.44,4.44,0,0,0,2.54.6A4.78,4.78,0,0,0,23.37,61c2.54-1,2.4-5.66,0-6.81-2.59-1.26-5.91.4-5.73,3.34Z" transform="translate(0 -0.55)" fill="#f2f4db" stroke="#a0a752"/></svg>