<svg width="42" height="86" xmlns="http://www.w3.org/2000/svg" xmlns:xlink="http://www.w3.org/1999/xlink">
 <defs>
  <path d="m9,16.820999a40.915001,40.915001 0 0 0 7.99,-1.565999c0.632999,-2.18 1.757,-4.166 2.68,-6.255c1.563,1.726 3.243999,3.942 4.441,5.904c2.214001,0.495 4.615,0.848 6.889,0.95c-1.673,1.657999 -2.868999,3.827 -4.985001,4.966c1.087,2.104 1.532001,5.445 2.620001,7.549c-2.003,-0.907999 -5.982,-2.757999 -8.07,-3.48c-2.363001,0.98 -5.202001,2.249001 -6.847,4.103001c-0.086,0.097 0.966,-0.710001 0.877,-0.616001c0.106,-2.288 0.13,-4.58 0.075,-6.869999c-2.326,-1.163 -3.719,-3.032 -5.67,-4.685001z" id="b"/>
  <filter filterUnits="objectBoundingBox" y="-27.5%" x="-34.1%" height="175%" width="168.2%" id="a">
   <feGaussianBlur stdDeviation="2"/>
  </filter>
 </defs>
 <g>
  <title>background</title>
  <rect fill="none" id="canvas_background" height="402" width="582" y="-1" x="-1"/>
 </g>
 <g>
  <title>Layer 1</title>
  <g id="svg_1" fill-rule="evenodd" fill="none">
   <circle id="svg_2" stroke-width="2" stroke="#89113A" fill="#F2F4DB" r="20" cy="21.452" cx="21"/>
   <use id="svg_3" x="1" y="1.452" xlink:href="#b" filter="url(#a)" fill="#000"/>
   <use id="svg_4" x="1" y="1.452" xlink:href="#b" stroke="#6C7138" fill="#FFF"/>
  </g>
  <g id="svg_5" fill-rule="evenodd" fill="none">
   <circle id="svg_6" stroke-width="2" stroke="#6C7138" fill="#F2F4DB" r="19.999985" cy="63.999983" cx="21"/>
   <use id="svg_7" x="1" y="43.999983" xlink:href="#b" filter="url(#a)" fill="#000"/>
   <use id="svg_8" x="1" y="43.999983" xlink:href="#b" stroke="#6C7138" fill="#FFF"/>
  </g>
 </g>
</svg>