<svg xmlns="http://www.w3.org/2000/svg" width="322" height="313" viewBox="0 0 322 313">
    <g fill="none" fill-rule="evenodd">
        <path stroke="#6C7138" stroke-linecap="round" stroke-linejoin="round" stroke-width="2.737" d="M135.613 61.144c-20.189 14.101-43.718 39.602-46.753 84.407-3.037 44.805 14.877 123.603 27.857 165.79"/>
        <path stroke="#6C7138" stroke-linecap="round" stroke-linejoin="round" stroke-width="2.737" d="M252.392 179.607c2.999-14.691 6.647-30.659 5.736-45.712-.912-14.142-5.93-26.457-14.141-38.318-10.492-14.596-23.72-25.088-39.686-31.93-27.37-11.404-57.932-13.685-87.127-5.93-.457 0-.913.912-1.369.912-5.018.913-8.667 3.649-12.316 6.386-3.65 3.65-6.843 8.21-5.474 13.684.912 3.194 3.194 5.475 5.93 5.93 2.28.913 4.562.913 6.83-.127M227.793 306.552c2.965-18.02 7.983-36.722 10.74-54.291"/>
        <path stroke="#6C7138" stroke-linecap="round" stroke-linejoin="round" stroke-width="2.737" d="M104.678 73.953c11.946-9.305 27.316-14.106 42.435-13.255 15.118.85 29.853 7.346 40.679 17.932 4.164 4.071 7.74 8.691 11.409 13.213 2.05 2.527 4.352 5.17 7.509 5.955 1.987.494 4.078.182 6.089-.207a82.593 82.593 0 0 0 24.379-8.88"/>
        <path stroke="#6C7138" stroke-linecap="round" stroke-linejoin="round" stroke-width="2.737" d="M250.821 105.95l1.698-.946a6.462 6.462 0 0 0 1.853-9c-7.413-11.12-17.714-20.258-29.13-27.28-13.277-8.169-28.057-13.62-43.059-17.856-8.415-2.377-17.003-4.397-25.742-4.714-8.74-.317-17.699 1.152-25.344 5.398-1.456.808-3.006 1.344-1.803 2.494"/>
        <path stroke="#6C7138" stroke-linecap="round" stroke-linejoin="round" stroke-width="2.737" d="M251.468 107.466c3.98 1.388 7.22 2.738 11.417 3.11 1.364.12 2.89.135 3.914-.774.706-.627 1.024-1.57 1.295-2.476a70.597 70.597 0 0 0 2.74-14.529c.297-3.649.28-7.472-1.297-10.777-2.31-4.847-7.414-7.586-12.069-10.263a151.36 151.36 0 0 1-39.665-32.969c-4.568-5.36-8.778-11.059-13.888-15.907-8.168-7.749-18.37-13.057-28.89-17.069-7.526-2.87-15.545-5.155-23.547-4.239-6.747.772-13.019 3.767-19.035 6.92-9.268 4.856-19.237 11.521-20.846 21.861-1.45 9.322 4.491 18.02 10.128 25.583M4.226 178.758c-2.824-.602-3.64-4.646-2.067-7.067 1.572-2.42 4.522-3.51 7.305-4.272a70.677 70.677 0 0 1 31.571-1.28c1.266-3.593-.822-7.546-.325-11.32.505-3.832 4-7.047 7.86-7.23 3.86-.183 7.645 2.687 8.51 6.453.883 3.841-.963 8.172.852 11.67 1.334 2.571 4.224 3.84 6.491 5.642 2.823 2.244 4.857 5.814 4.317 9.38-.82 5.406-6.763 8.328-12.088 9.57-10.02 2.333-20.8 2.046-30.033 6.585-2.183 1.073-4.267 2.412-6.622 3.02-2.355.608-5.14.323-6.784-1.468-1.932-2.105-1.598-5.516-.225-8.023 3.48-6.352 11.537-8.28 18.665-9.569l6.053-1.095"/>
        <path stroke="#6C7138" stroke-linecap="round" stroke-linejoin="round" stroke-width="2.737" d="M31.849 170.81c-.35 1.427-1.695 2.435-3.113 2.816-1.418.38-2.916.249-4.38.127-3.671-.307-7.41-.536-11.003.27-3.595.808-7.081 2.796-8.9 5.999-.49.862-.854 1.815-.908 2.805-.048.878.152 1.757.482 2.572 1.187 2.93 4.187 5.032 7.346 5.147.113.004.25-.01.296-.113M64.745 171.307c1.361-.733 2.183-.415 3.495.403 1.314.818 2.294 2.062 3.246 3.28 1.54 1.97 3.097 3.97 4.088 6.268.99 2.298 1.367 4.965.481 7.305-.739 1.95-2.268 3.49-3.867 4.83a37.066 37.066 0 0 1-8.873 5.51c-2.555 1.124-5.332 1.967-8.106 1.662-4.755-.523-8.514-4.273-11.175-8.247.206.227.41.454.614.682M55.326 200.634c1.608 8.774 5.25 17.158 10.51 24.36 5.243 7.18 12.11 13.095 19.957 17.27a59.688 59.688 0 0 0 14.061 5.341M76.481 185.902a76.082 76.082 0 0 0 14.991 15.269M286.973 192.992c.972 3.286 5.312 3.698 8.577 4.74 5.324 1.698 9.162 6.513 11.225 11.706 1.419 3.571 1.78 8.406-1.417 10.535-2.25 1.498-5.29.911-7.758-.187-7.106-3.16-12.176-9.856-19.29-13.002-4.072-1.8-8.571-2.328-12.97-3.02-4.398-.695-8.894-1.626-12.606-4.087-3.711-2.46-6.495-6.795-5.907-11.208.386-2.889 2.135-5.436 4.224-7.467a23.345 23.345 0 0 1 11.443-6.078c1.665-.347 3.396-.519 4.93-1.253 4.22-2.018 5.69-7.566 9.733-9.917 2.3-1.339 5.108-1.437 7.766-1.276 2.398.146 5.35.982 5.743 3.352.229 1.384-.57 2.707-1.336 3.882l-6.656 10.22c5.2.277 10.389.776 15.548 1.496 5.05.704 10.167 1.651 14.665 4.053 2.754 1.47 5.332 3.616 6.396 6.551 1.063 2.936.147 6.725-2.623 8.166"/>
        <path stroke="#6C7138" stroke-linecap="round" stroke-linejoin="round" stroke-width="2.737" d="M290.355 186.238c-.336 1.028.344 2.166 1.272 2.722.93.555 2.045.673 3.12.8 4.076.484 8.161 1.314 11.866 3.08 3.706 1.767 7.031 4.544 8.885 8.206.735 1.45 1.236 3.113.876 4.698-.393 1.722-1.772 3.1-3.373 3.843-1.602.743-3.408.924-5.173.918M249.823 181.775a3.712 3.712 0 0 0-2.332-.429c-1.73 2.411-3.457 4.824-5.186 7.235-1.254 1.751-2.546 3.591-2.856 5.722-.518 3.573 1.843 6.916 4.435 9.43 5.924 5.747 14.248 9.531 22.407 8.287 3.217-.491 6.652-2.084 7.709-5.162"/>
        <path stroke="#6C7138" stroke-linecap="round" stroke-linejoin="round" stroke-width="2.737" d="M268.248 212.213c1.39 7.46-1.026 15.305-5.452 21.47-4.425 6.163-10.707 10.79-17.398 14.37-4.245 2.27-8.827 4.191-13.64 4.34-1.886.058-3.838-.178-5.478-1.11-2.863-1.625-4.249-5.117-4.244-8.408.006-3.29 1.166-6.458 2.333-9.536 4.794-12.657 9.476-23.814 14.952-36.19M218.763 157.507a26.888 26.888 0 0 0 7.186 10.157c.381.335 1.102.588 1.278.112M223.548 165.826a430.575 430.575 0 0 0-99.743-13.979c-.173-2.14 1.85-4.185 3.993-4.035M222.087 165.876c-7.52 45.926-.898 93.055-5.488 139.366M125.307 152.57a557.548 557.548 0 0 0-2.152 105.052c1.308 17.668 3.51 35.483 9.81 52.042M241.411 139.448c-13.122-4.218-28.374-.973-38.642 8.222"/>
        <path stroke="#6C7138" stroke-linecap="round" stroke-linejoin="round" stroke-width="2.737" d="M233.506 137.42c3.57-2.931 4.597-8.182 3.47-12.662-1.765-7.02-8.561-12.447-15.798-12.612-7.237-.166-14.276 4.942-16.361 11.873-.455 1.513-.694 3.1-.611 4.676.254 4.847 3.424 8.981 6.456 12.77.249.311.927.47.87.075M143.98 131.184c-6.617-5.19-15.21-7.793-23.597-7.146-3.583.277-7.527 1.414-9.292 4.545"/>
        <path stroke="#6C7138" stroke-linecap="round" stroke-linejoin="round" stroke-width="2.737" d="M140.868 128.356c6.53-2.75 9.505-11.3 6.96-17.912-2.545-6.612-9.636-10.87-16.718-11.078-2.253-.066-4.564.24-6.567 1.273-3.217 1.657-5.24 4.939-6.854 8.178-1.088 2.184-2.08 4.472-2.324 6.899-.246 2.428.669 5.635 2.068 7.689"/>
        <path fill="#6C7138" d="M215.722 140.219c3.58-2.051 7.51-3.596 11.604-2.683 1.363-1.893 2.186-4.327 2.186-6.985 0-6.028-4.22-10.915-9.425-10.915-2.168 0-4.158.856-5.75 2.28 5.21.858 4.921 9.376-.862 9.376-1.155 0-2.089-.342-2.807-.892 0 .05-.006.1-.006.15 0 4.203 2.054 7.845 5.06 9.669M135.665 126.803c3.695-1.567 6.31-5.408 6.31-9.908 0-5.891-4.476-10.667-10-10.667a9.472 9.472 0 0 0-5.016 1.45c4.19 1.678 3.585 9.114-1.817 9.114-1.323 0-2.341-.461-3.09-1.16a11.065 11.065 0 0 0 2.067 7.846c4.049-.562 8.188.84 11.546 3.325"/>
    </g>
</svg>
