<?xml version="1.0" encoding="UTF-8"?>
<svg width="26px" height="30px" viewBox="0 0 26 30" version="1.1" xmlns="http://www.w3.org/2000/svg" xmlns:xlink="http://www.w3.org/1999/xlink">
    <!-- Generator: sketchtool 48.2 (47327) - http://www.bohemiancoding.com/sketch -->
    <title>C202AB2C-0B2F-40C9-8874-2FE5EE8FBF43</title>
    <desc>Created with sketchtool.</desc>
    <defs>
        <rect id="path-1" x="0" y="0" width="3" height="3"></rect>
        <rect id="path-2" x="0" y="0" width="3" height="3"></rect>
        <rect id="path-3" x="0" y="0" width="3" height="3"></rect>
        <rect id="path-4" x="0" y="0" width="3" height="3"></rect>
        <rect id="path-5" x="0" y="0" width="3" height="3"></rect>
        <rect id="path-6" x="0" y="0" width="3" height="3"></rect>
    </defs>
    <g id="Desktop/General/Icons/Calendar-Icon-ON" stroke="none" stroke-width="1" fill="none" fill-rule="evenodd" transform="translate(0.000000, 1.000000)">
        <g id="Desktop/General/Icons/Calendar-Icon">
            <g>
                <rect id="Rectangle" fill="#FFFFFF" x="1" y="3" width="24" height="24"></rect>
                <path d="M0.500488281,3.86499023 C0.557861328,11.8613281 0.615234375,19.857666 0.672607422,27.8540039" id="Path-92" stroke="#6c7138"></path>
                <path d="M0.670410156,27.4853516 C8.68448893,27.5392253 16.6985677,27.593099 24.7126465,27.6469727" id="Path-93" stroke="#6c7138"></path>
                <path d="M24.9589844,27.6208496 C24.781901,19.5753581 24.6048177,11.5298665 24.4277344,3.484375" id="Path-94" stroke="#6c7138"></path>
                <path d="M24.4580078,3.32421875 C16.3771159,3.30403646 8.29622396,3.28385417 0.215332031,3.26367188" id="Path-95" stroke="#6c7138"></path>
                <path d="M0,12.5441895 C8.01570638,12.362793 16.0314128,12.1813965 24.0471191,12" id="Path-91" stroke="#6c7138"></path>
                <g id="Group" transform="translate(5.000000, 0.000000)">
                    <rect id="Rectangle-2" fill="#FFFFFF" x="0" y="1" width="4" height="6"></rect>
                    <path d="M0.224121094,0.564208984 C1.67407227,0.551595052 3.12402344,0.53898112 4.57397461,0.526367188" id="Path-96" stroke="#6c7138"></path>
                    <path d="M4.56152344,0.530273438 C4.50748698,2.74788411 4.45345052,4.96549479 4.39941406,7.18310547" id="Path-97" stroke="#6c7138"></path>
                    <path d="M4.43359375,7.48095703 C3.13232422,7.43693034 1.83105469,7.39290365 0.529785156,7.34887695" id="Path-100" stroke="#6c7138"></path>
                    <path d="M0.525634766,7.33251953 C0.531005859,5.1418457 0.536376953,2.95117188 0.541748047,0.760498047" id="Path-101" stroke="#6c7138"></path>
                </g>
                <g id="Group-2" transform="translate(14.000000, 0.000000)">
                    <rect id="Rectangle-5" fill="#FFFFFF" x="1" y="0" width="5" height="8"></rect>
                    <path d="M1.37768555,0.335693359 C2.74527995,0.278564453 4.11287435,0.221435547 5.48046875,0.164306641" id="Path-102" stroke="#6c7138"></path>
                    <path d="M5.76171875,0.195068359 C5.70556641,2.69726562 5.64941406,5.19946289 5.59326172,7.70166016" id="Path-103" stroke="#6c7138"></path>
                    <path d="M5.60473633,7.70166016 C3.94222005,7.66845703 2.27970378,7.63525391 0.6171875,7.60205078" id="Path-104" stroke="#6c7138"></path>
                    <path d="M1.00683594,7.39428711 C1.04427083,5.06567383 1.08170573,2.73706055 1.11914062,0.408447266" id="Path-105" stroke="#6c7138"></path>
                </g>
                <g id="Group-6" transform="translate(5.000000, 15.000000)">
                    <g id="Rectangle-6">
                        <use fill="#F2F4DB" fill-rule="evenodd" xlink:href="#path-1"></use>
                        <rect stroke="#6c7138" stroke-width="0.5" x="0.25" y="0.25" width="2.5" height="2.5"></rect>
                    </g>
                </g>
                <g id="Group-6" transform="translate(11.000000, 15.000000)">
                    <g id="Rectangle-6">
                        <use fill="#F2F4DB" fill-rule="evenodd" xlink:href="#path-2"></use>
                        <rect stroke="#6c7138" stroke-width="0.5" x="0.25" y="0.25" width="2.5" height="2.5"></rect>
                    </g>
                </g>
                <g id="Group-6" transform="translate(17.000000, 15.000000)">
                    <g id="Rectangle-6">
                        <use fill="#F2F4DB" fill-rule="evenodd" xlink:href="#path-3"></use>
                        <rect stroke="#6c7138" stroke-width="0.5" x="0.25" y="0.25" width="2.5" height="2.5"></rect>
                    </g>
                </g>
                <g id="Group-6" transform="translate(5.000000, 21.000000)">
                    <g id="Rectangle-6">
                        <use fill="#F2F4DB" fill-rule="evenodd" xlink:href="#path-4"></use>
                        <rect stroke="#6c7138" stroke-width="0.5" x="0.25" y="0.25" width="2.5" height="2.5"></rect>
                    </g>
                </g>
                <g id="Group-6" transform="translate(11.000000, 21.000000)">
                    <g id="Rectangle-6">
                        <use fill="#F2F4DB" fill-rule="evenodd" xlink:href="#path-5"></use>
                        <rect stroke="#6c7138" stroke-width="0.5" x="0.25" y="0.25" width="2.5" height="2.5"></rect>
                    </g>
                </g>
                <g id="Group-6" transform="translate(17.000000, 21.000000)">
                    <g id="Rectangle-6">
                        <use fill="#F2F4DB" fill-rule="evenodd" xlink:href="#path-6"></use>
                        <rect stroke="#6c7138" stroke-width="0.5" x="0.25" y="0.25" width="2.5" height="2.5"></rect>
                    </g>
                </g>
            </g>
        </g>
    </g>
</svg>
