<?xml version="1.0" encoding="UTF-8"?>
<svg width="15px" height="11px" viewBox="0 0 15 11" version="1.1" xmlns="http://www.w3.org/2000/svg" xmlns:xlink="http://www.w3.org/1999/xlink">
    <!-- Generator: sketchtool 48.2 (47327) - http://www.bohemiancoding.com/sketch -->
    <title>09044AAD-37D7-4B88-922E-CBE92206E4C3</title>
    <desc>Created with sketchtool.</desc>
    <defs>
        <polygon id="path-1" points="0.0688336065 11.1220587 13.2481942 11.1220587 13.2481942 0.638188046 0.0688336065 0.638188046"></polygon>
    </defs>
    <g id="Desktop/SignUp---Email---Profile-Choose-Shoppe-Location" stroke="none" stroke-width="1" fill="none" fill-rule="evenodd" transform="translate(-247.000000, -1703.000000)">
        <g id="checkmark" transform="translate(254.055164, 1708.197890) rotate(11.000000) translate(-254.055164, -1708.197890) translate(247.055164, 1702.197890)">
            <mask id="mask-2" fill="white">
                <use xlink:href="#path-1"></use>
            </mask>
            <g id="Clip-2"></g>
            <path d="M12.8747028,0.775989734 C12.4921436,0.523473177 11.9742668,0.628287043 11.7196861,1.00625915 L6.24390698,9.16614476 L1.34059047,6.05200325 C0.951838824,5.8065966 0.436714222,5.91760297 0.187637945,6.29924471 C-0.0614383321,6.68272126 0.0504854461,7.19165336 0.43763163,7.43706 L6.03336184,10.9929335 C6.10056197,11.0351342 6.17326656,11.0663261 6.2466592,11.0878852 L6.24757661,11.0888026 C6.28243811,11.0986648 6.31752897,11.1057747 6.35330788,11.1112791 C6.35697751,11.1121965 6.3613352,11.1131139 6.36500483,11.1140313 C6.40445338,11.1193064 6.44367257,11.1220587 6.48312112,11.1220587 C6.51729457,11.1220587 6.55032125,11.1202238 6.5844947,11.1165542 C6.61132889,11.1131139 6.63816307,11.1076095 6.66407985,11.101417 C6.67141911,11.1004996 6.67761162,11.0995822 6.68380412,11.0986648 C6.78150807,11.0745828 6.87462499,11.0332994 6.95810912,10.9759614 C6.95902653,10.9759614 6.95971458,10.975044 6.95971458,10.975044 C6.98402589,10.9589894 7.00650239,10.9401825 7.02874954,10.9213757 C7.03333658,10.917706 7.03769426,10.9149538 7.0413639,10.9115135 C7.05925335,10.8952295 7.07530799,10.8782575 7.09159198,10.860368 C7.09961931,10.8523407 7.10856403,10.8443134 7.11659135,10.8353687 C7.12828831,10.8218369 7.13815044,10.8076171 7.14892999,10.7931679 C7.15879212,10.7796361 7.16957167,10.7672511 7.17920445,10.7537193 L13.1093299,1.91747466 C13.3636813,1.53766774 13.2588674,1.02690083 12.8747028,0.775989734 L12.8747028,0.775989734 Z" id="Fill-1" fill="#89113A" mask="url(#mask-2)"></path>
        </g>
    </g>
</svg>