<?xml version="1.0" encoding="utf-8"?>
<svg version="1.1" id="Layer_1" xmlns="http://www.w3.org/2000/svg" xmlns:xlink="http://www.w3.org/1999/xlink" x="0px" y="0px"
	 viewBox="0 0 28 27" style="enable-background:new 0 0 28 27;" xml:space="preserve">
<style type="text/css">
	.st0{fill:#FFFFFF;}
	.st1{fill:#6C7138;}
	.st2{fill:none;stroke:#6C7138;stroke-width:2;}
</style>
<path class="st0" d="M27.1,12.7c0,7.5-6.8,13.6-13.7,13.6S0.9,20.7,0.9,13.7S6.5,0.9,13.4,0.9C21.8,0.9,27.1,4.3,27.1,12.7z"/>
<title>449B9B58-A6A4-4F55-83D6-6ED8E403FB49</title>
<desc>Created with sketchtool.</desc>
<g id="Desktop_x2F_General_x2F_Icons_x2F_CTA-Icon---Calendar-Off">
	<g id="Circle">
		<path class="st1" d="M25.9,16.8c-0.2,0.7-0.4,1.4-0.7,2l-0.9-0.3c-0.3,1-0.8,2-1.5,2.9l0,0l0,0c-1.7,2.2-4.4,3.8-7.3,4.2
			c-4,0.5-8.3-1.1-11-4.2C2,18.5,1,14.3,2,10.4s3.8-7.1,7.3-8.1c1.4-0.4,2.8-0.5,4.3-0.5c0.6,0,1.1,0,1.7,0c2,0.1,4.1,0.2,5.9,1
			c2.3,1,4.2,3.3,5,6C26.8,11.2,26.8,13.8,25.9,16.8 M21.6,1.9c-2-0.9-4.2-1-6.3-1.1c-2-0.1-4.2-0.1-6.3,0.5c-3.8,1.1-7,4.6-8,8.8
			s0,8.8,2.8,12c2.5,2.9,6.3,4.6,10.2,4.6c0.6,0,1.1,0,1.7-0.1c3.1-0.4,6-2.1,7.8-4.5c1.6-0.8,2.7-2.5,3.4-5.1c0.9-3.1,1-6,0.3-8.5
			C26.3,5.6,24.3,3.1,21.6,1.9z"/>
	</g>
</g>
<g id="Desktop_x2F_General_x2F_Icons_x2F_CTA-Icon---Calendar-Off_1_" transform="translate(0, 0)">
	<g id="Arrow">
		<g transform="translate(14.000000, 12.500000) scale(-1, 1) translate(-14.000000, -12.500000) translate(7.000000, 8.000000)">
			<path id="Path-98" class="st2" d="M5.1,8.6c-6.6-4.7-6.3-2.1,0.3-7.7"/>
			<path id="Path-99" class="st2" d="M6,5.2c2.4-0.1,4.8-0.1,7.1-0.2"/>
		</g>
	</g>
</g>
</svg>
