<svg xmlns="http://www.w3.org/2000/svg" width="20" height="21" viewBox="0 0 20 21">
    <g fill="none" fill-rule="evenodd">
        <path fill="#89113A" stroke="#F2F4DB" d="M16.13 16.655c1.335-.67 2.005-2.246 2.384-3.742.517-2.04.693-4.216.173-6.255-.52-2.04-1.798-3.924-3.627-4.822-1.31-.642-2.795-.75-4.241-.807-1.43-.057-2.89-.072-4.256.377-2.707.889-4.66 3.556-5.304 6.441-.674 3.015-.024 6.357 1.847 8.758 1.871 2.401 4.958 3.755 7.892 3.311 2.934-.443 5.575-2.74 6.383-5.72"/>
        <path stroke="#FFF" d="M6 14l8-7M7 6c5.05 5.253 2.275 3.407 8 6"/>
    </g>
</svg>
