<svg xmlns="http://www.w3.org/2000/svg" width="42.12" height="46.65" viewBox="0 0 42.12 46.65">
  <metadata><?xpacket begin="﻿" id="W5M0MpCehiHzreSzNTczkc9d"?>
<x:xmpmeta xmlns:x="adobe:ns:meta/" x:xmptk="Adobe XMP Core 5.6-c142 79.160924, 2017/07/13-01:06:39        ">
   <rdf:RDF xmlns:rdf="http://www.w3.org/1999/02/22-rdf-syntax-ns#">
      <rdf:Description rdf:about=""/>
   </rdf:RDF>
</x:xmpmeta>                    
<?xpacket end="w"?></metadata>
<defs>
    <style>
      .cls-1 {
        fill-rule: evenodd;
      }
    </style>
  </defs>
  <path fill="#6c7138" class="cls-1" d="M2825.7,2006.4c0.42-.84,6.26-2.17,10.3-4.4,6.41-3.55,10.44-9.54,14-6,1.89,1.88-5.99,16.77-7,20-0.15.49,3.64,1.19-2,8-2.75,3.32-4.54-6.41-5-7-0.81-1.02-11.53,12.41-18.24,19.85-2.71,3-2.84,6.09-7.76,4.15-5.08-2,1.52-5.78,5-10,6.83-8.29,15.66-16.94,16-18C2831.4,2011.75,2824.85,2008.06,2825.7,2006.4Z" transform="translate(-2808.16 -1994.94)"/>
</svg>
