<?xml version="1.0" encoding="utf-8"?>
<!-- Generator: Adobe Illustrator 22.1.0, SVG Export Plug-In . SVG Version: 6.00 Build 0)  -->
<svg version="1.1" id="Layer_1" xmlns="http://www.w3.org/2000/svg" xmlns:xlink="http://www.w3.org/1999/xlink" x="0px" y="0px"
	 viewBox="0 0 35 34" style="enable-background:new 0 0 35 34;" xml:space="preserve">
<style type="text/css">
	.st0{display:none;}
	.st1{fill:#F2F4DB;stroke:#6C7138;}
	.st2{fill:#6C7138;}
</style>
<g>
	
		<image style="overflow:visible;opacity:0.25;" width="58" height="56" xlink:href="7939F341.html"  transform="matrix(1 0 0 1 -12 -8)">
	</image>
	<g>
		<g>
			<g transform="translate(4 3)">
				<g class="st0">
					
						<image style="display:inline;overflow:visible;" width="41" height="40" xlink:href="7939F343.html"  transform="matrix(1 0 0 1 -7.1752 -3.9996)">
					</image>
				</g>
				<g>
					<path id="b_14_" class="st1" d="M22.2,22.1c1.9-0.9,2.9-3,3.4-4.9c0.7-2.7,1-5.5,0.3-8.2s-2.6-5.2-5.2-6.3
						c-1.9-0.8-4-1-6.1-1.1C12.4,1.5,10.3,1.4,8.3,2c-3.9,1.2-6.7,4.7-7.7,8.5c-1,4,0,8.4,2.7,11.5c2.7,3.2,7.2,4.9,11.4,4.4
						c4.2-0.6,8.1-3.6,9.2-7.5"/>
				</g>
				<path class="st2" d="M12.7,9.5c0.1-0.3,2.1-0.7,3.4-1.5c2.1-1.2,3.4-3.1,4.6-2c0.6,0.6-2,5.5-2.3,6.6c0,0.2,1.2,0.4-0.7,2.6
					c-0.9,1.1-1.5-2.1-1.6-2.3c-0.3-0.3-3.8,4.1-6,6.5c-0.9,1-0.9,2-2.6,1.4C5.8,20.3,8,19,9.1,17.6c2.3-2.7,5.2-5.6,5.3-5.9
					C14.5,11.3,12.4,10.1,12.7,9.5z"/>
			</g>
		</g>
	</g>
</g>
</svg>
