<?xml version="1.0" encoding="utf-8"?>
<!-- Generator: Adobe Illustrator 21.1.0, SVG Export Plug-In . SVG Version: 6.00 Build 0)  -->
<svg version="1.1" id="Layer_1" xmlns="http://www.w3.org/2000/svg" xmlns:xlink="http://www.w3.org/1999/xlink" x="0px" y="0px"
	 viewBox="0 0 73 43" style="enable-background:new 0 0 73 43;" xml:space="preserve">
<style type="text/css">
	.st0{fill:#D8ECFA;}
	.st1{fill:none;stroke:#6C7138;}
	.st2{enable-background:new    ;}
	.st3{fill:#222222;}
</style>
<g>
	<path class="st0" d="M0.4,3.5l46.8-0.5L72.9,1L54.1,19.1l16.7,19.1c0,0-16.9,1.8-18.6,1.8l-50,1.6C1,39.5,6.5,17,0.9,3.7"/>
	<path class="st1" d="M0.4,3.5c42.1,0.4,18.1,0.8,72-2.4 M53.8,18.9c13.8,15.9,8.1,10.5,16.4,17.9 M70.8,38.1
		c-37.6,3.2-14.6,1.6-69.1,3.6 M71.8,1L54.2,18.9 M0.8,2.9c5.7,12.5,1.3,26,1,38.8"/>
	<g class="st2">
		<path class="st3" d="M15.2,18.1l2.7,0l1.4-0.1c0,0.1,0.1,0.3,0.1,0.6c0,0.2,0,0.4-0.1,0.5c-0.1,0.1-0.2,0.2-0.4,0.2
			c-0.2,0-0.5,0-1.1,0s-1,0-1.2,0l-0.5,0c0,0.4-0.2,1.5-0.6,3.4c0.7-0.1,1.3-0.1,1.8-0.2s0.8,0,1.1,0.1c0,0.4-0.1,0.7-0.2,1
			c-0.4-0.1-0.9-0.1-1.4-0.1c-0.6,0-1,0.1-1.4,0.1c-0.3,1.7-0.4,3-0.4,3.9l0,0.2c-0.3,0.2-1,0.3-2.1,0.4l-0.1,0c0-0.6,0.1-2,0.5-4
			c0.4-2,0.6-3.5,0.6-4.4c0-0.1-0.1-0.3-0.2-0.5c-0.1-0.2-0.2-0.4-0.3-0.5l-0.1-0.2l0-0.2C14,18.2,14.6,18.2,15.2,18.1z"/>
		<path class="st3" d="M19.4,27.7c-0.1,0.2-0.2,0.3-0.4,0.3c-0.2,0-0.5-0.1-0.8-0.4c0.3-0.8,0.8-2.2,1.6-4c0.8-1.9,1.4-3.2,1.6-4.2
			c0-0.1,0-0.3,0-0.3c0-0.1-0.1-0.4-0.3-0.6L21,18.4l0-0.2c0.8-0.3,1.7-0.4,2.6-0.4l0.9,0c0.1,0.1,0.2,0.3,0.3,0.6
			c0.2,0.7,0.3,2.5,0.4,5.5c0,1.1,0.2,1.9,0.4,2.4c0.1,0.2,0.2,0.3,0.2,0.3c0.1,0,0.3-0.1,0.7-0.3l0.2-0.1l0.3,0.5
			c-0.3,0.4-0.7,0.6-1.2,0.9s-0.8,0.3-1.2,0.3c-0.9,0-1.4-0.7-1.5-2.1l0-1.1c-0.2,0-0.6-0.1-1.1,0c-0.5,0-1,0.1-1.6,0.2
			C19.9,25.9,19.6,26.8,19.4,27.7z M23.1,23.7l0-1.6c0-1.4-0.1-2.4-0.3-2.9c-0.1,0-0.1,0-0.2,0c-0.2,0.7-0.5,1.3-0.7,1.9
			c-0.2,0.5-0.4,1-0.7,1.6s-0.4,0.9-0.5,1.1L23.1,23.7z"/>
		<path class="st3" d="M28.4,27.2c-0.3-0.3-0.5-0.8-0.5-1.3c0-0.5,0-1.4,0.1-2.7c0.1-1.3,0.1-2.2,0.1-2.8c0-0.6-0.1-1-0.2-1.3
			l-0.6-1l0-0.2c0.7-0.2,1.7-0.3,2.8-0.3c0.1,0.4,0.2,0.9,0.2,1.6s0,1.8-0.2,3.2c-0.1,1.4-0.2,2.3-0.2,2.8c0,0.5,0.2,0.7,0.5,0.7
			c0.3,0,0.7-0.3,1.1-0.8c0.4-0.5,0.8-1.2,1.2-2c0.4-0.8,0.6-1.6,0.7-2.4L32,19.9c0-0.7,0.2-1.3,0.5-1.7c0.2-0.4,0.4-0.6,0.6-0.7
			l0.1-0.1c0.6,0,1,0.1,1.3,0.4c0.3,0.3,0.5,0.6,0.5,1c0,1-0.2,2.2-0.8,3.6c-0.6,1.4-1.3,2.6-2.1,3.6c-0.9,1-1.7,1.6-2.5,1.6
			C29.1,27.7,28.7,27.5,28.4,27.2z"/>
		<path class="st3" d="M38.1,27.4c-0.7,0-1.3-0.1-1.9-0.5c-0.3-0.2-0.6-0.4-0.8-0.8c-0.2-0.3-0.3-0.7-0.3-1.2c0-0.8,0.2-1.5,0.8-2.1
			c0.5-0.5,1.2-0.9,2-1c-0.5-0.1-1-0.3-1.3-0.7c-0.3-0.3-0.5-0.8-0.5-1.3c0-0.8,0.3-1.4,0.9-1.9c0.6-0.5,1.3-0.8,2.1-0.8
			s1.5,0.1,2,0.4c0.6,0.3,0.8,0.8,0.9,1.4c0,0.2,0,0.4-0.1,0.6c-0.1,0.2-0.1,0.3-0.2,0.4l-0.1,0.1c-0.3,0-0.6,0-1-0.1
			c-0.4-0.1-0.6-0.2-0.8-0.4l0.1-1.4c-0.1-0.1-0.4-0.2-0.7-0.2c-0.3,0-0.6,0.2-0.8,0.5c-0.2,0.3-0.3,0.7-0.2,1.2
			c0,0.4,0.1,0.8,0.2,1c0.1,0.2,0.3,0.4,0.5,0.5c0.3,0.2,0.6,0.3,1,0.4l-0.1,0.8c-0.7,0-1.2,0.2-1.7,0.7c-0.5,0.4-0.7,0.9-0.7,1.6
			c0,0.4,0.2,0.7,0.4,1c0.3,0.3,0.6,0.4,1,0.4c0.8,0,1.5-0.4,2.3-1.2l0.6,0.5C40.7,26.7,39.5,27.3,38.1,27.4z"/>
		<path class="st3" d="M42.6,27c-0.2-0.2-0.3-0.4-0.3-0.7c0-0.3,0.1-0.6,0.4-0.8c0.2-0.2,0.5-0.4,0.9-0.4s0.6,0.1,0.8,0.3
			c0.2,0.2,0.3,0.4,0.3,0.7c0,0.3-0.1,0.6-0.4,0.8c-0.3,0.2-0.5,0.4-0.9,0.4C43,27.2,42.8,27.1,42.6,27z M45.6,17.7
			c0,0.9-0.2,2.4-0.8,4.4c0,0.2-0.1,0.5-0.2,0.9c-0.1,0.4-0.2,0.7-0.3,1C44.1,24,43.9,24,43.7,24c-0.2,0-0.4,0-0.5,0
			c0.3-2,0.4-3.8,0.3-5.4l-0.1-1.2c0.8-0.3,1.5-0.4,2.1-0.5C45.5,17.1,45.6,17.3,45.6,17.7z"/>
	</g>
</g>
</svg>
