<?xml version="1.0" encoding="UTF-8"?>
<svg width="21px" height="32px" viewBox="0 0 21 32" version="1.1" xmlns="http://www.w3.org/2000/svg" xmlns:xlink="http://www.w3.org/1999/xlink">
    <!-- Generator: sketchtool 48.2 (47327) - http://www.bohemiancoding.com/sketch -->
    <title>AB989E6E-A24C-4130-B1F9-B74CE2BFE5BB</title>
    <desc>Created with sketchtool.</desc>
    <defs></defs>
    <g id="Desktop/Global/Geo-Locator---Light-Green-Balloon" stroke="none" stroke-width="1" fill="none" fill-rule="evenodd" transform="translate(1.000000, 0.000000)">
        <g id="BALLOON-LOCATOR">
            <g transform="translate(0.076369, 0.454930)">
                <path d="M0.303257647,13.4311114 C-0.140181497,10.8180394 -0.207682255,7.93456393 1.18669284,5.71937001 C1.8442447,4.67482981 2.6883645,3.37205718 3.65867789,2.64300094 C4.58991611,1.94325109 5.46230135,1.14709446 6.79742311,0.882856622 C7.99754335,0.645202707 9.12888168,0.792375179 10.3496605,0.829768837 C12.3446562,0.891023973 14.4051509,1.5251948 15.808414,3.01325421 C16.841584,4.1088804 18.0143996,5.82538544 18.4032296,7.31120284 C19.769099,12.5315017 18.0949521,18.147837 14.9447566,22.4364973 C13.7680174,24.0386594 12.1543249,25.6057499 10.2317143,26.1111649 C8.35530537,26.6044889 6.81712084,25.4176606 5.44012139,24.1128061 C2.56913719,21.3921973 0.969937732,17.3595274 0.303257647,13.4311114 Z" id="Stroke-1" stroke="#6C7138" fill="#F2F4DB"></path>
                <path d="M5.51551035,29.6433553 C5.42063484,29.8209361 5.32981607,30.0884196 5.44235806,30.2436229 C5.49103901,30.3104937 5.56262095,30.3277676 5.62988441,30.3361428 C6.24899619,30.4133519 6.84481439,30.0004798 7.46340272,29.9114931 C8.8351063,29.7138904 10.1604845,31.1122899 11.5198869,30.7831701 C11.8115801,30.7125042 12.1234261,30.5234075 12.2374075,30.1339599 C12.3324139,29.809551 12.2596542,29.4240293 12.1124336,29.1418892 C11.965213,28.8598799 11.7538696,28.6618845 11.5435731,28.4781532 C11.3080201,28.2721752 11.05925,28.0722169 10.7848308,28.0257606 C10.5713936,27.9896425 10.3565169,28.0489233 10.1441266,28.0948561 C9.1957641,28.2999181 8.27174207,28.1977143 7.33672755,27.9310159 C6.36480974,27.6537177 6.09562502,28.5575869 5.51551035,29.6433553 Z" id="Stroke-3" stroke="#6C7138"></path>
                <path d="M4.90942771,9.01401556 C4.99606569,10.4231239 5.38761813,11.9501784 6.53729296,12.7693958 C7.40751626,13.3894739 8.53949516,13.4789145 9.60789684,13.4910854 C10.3452806,13.4994129 11.102282,13.4773931 11.7857772,13.2008241 C14.8603847,11.9565842 14.6909521,6.37347878 11.820048,4.9787834 C8.69603607,3.46117739 4.69155159,5.47090637 4.90942771,9.01401556 Z" id="Stroke-5" stroke="#A0A752" fill="#FFFFFF"></path>
            </g>
        </g>
    </g>
</svg>