<?xml version="1.0" encoding="utf-8"?>
<!-- Generator: Adobe Illustrator 21.1.0, SVG Export Plug-In . SVG Version: 6.00 Build 0)  -->
<svg version="1.1" id="Layer_1" xmlns="http://www.w3.org/2000/svg" xmlns:xlink="http://www.w3.org/1999/xlink" x="0px" y="0px"
	 viewBox="0 0 75 42" style="enable-background:new 0 0 75 42;" xml:space="preserve">
<style type="text/css">
	.st0{fill:#F2F4DB;}
	.st1{fill:none;stroke:#6C7138;}
	.st2{enable-background:new    ;}
	.st3{fill:#222222;}
</style>
<path class="st0" d="M0.4,3.5L47.2,3l25.7-2L54.1,19.1l16.7,19.1c0,0-16.9,1.8-18.6,1.8l-50,1.6C1,39.5,6.5,17,0.9,3.7"/>
<path class="st1" d="M0.4,3.5c42.1,0.4,18.1,0.8,72-2.4 M53.8,18.9c13.8,15.9,8.1,10.5,16.4,17.9 M70.8,38.1
	c-37.6,3.2-14.6,1.6-69.1,3.6 M71.8,1L54.2,18.9 M0.8,2.9c5.7,12.5,1.3,26,1,38.8"/>
<g class="st2">
	<path class="st3" d="M12.5,28.9l-0.3,0c0-0.4,0.2-1.7,0.6-3.7c0.4-2.1,0.6-3.6,0.7-4.6c0-0.1-0.1-0.3-0.2-0.5s-0.2-0.4-0.3-0.5
		l-0.1-0.2l0-0.2c0.5-0.2,1.4-0.3,2.7-0.3c0.1,0.2,0.2,0.4,0.2,0.7c0,0.2,0,0.5,0,0.8c1.1-1,2.1-1.5,2.8-1.6c0.5,0,0.9,0.1,1.2,0.4
		c0.3,0.3,0.5,0.7,0.5,1.3c0,0.6-0.1,1.7-0.5,3.3s-0.5,2.7-0.5,3.4c0,0.3,0.1,0.4,0.2,0.4c0.1,0,0.3-0.1,0.7-0.3l0.2-0.1l0.3,0.5
		c-0.4,0.3-0.8,0.6-1.2,0.9c-0.4,0.2-0.8,0.3-1.1,0.4s-0.6-0.1-0.8-0.3c-0.2-0.2-0.3-0.6-0.4-1c0-0.4,0.1-1.5,0.5-3.2
		c0.3-1.7,0.5-2.8,0.5-3.3c0-0.5-0.2-0.7-0.6-0.7c-0.6,0-1.2,0.3-1.8,0.9c-0.1,0.5-0.2,1.3-0.5,2.5c-0.5,2.6-0.8,4.2-0.8,4.8
		C14.1,28.8,13.4,28.9,12.5,28.9z"/>
	<path class="st3" d="M24.4,28.6c-0.7,0-1.3-0.1-1.9-0.5c-0.3-0.2-0.6-0.4-0.8-0.8s-0.3-0.7-0.3-1.2c0-0.8,0.2-1.5,0.8-2.1
		s1.2-0.9,2-1c-0.5-0.1-1-0.3-1.3-0.7c-0.3-0.3-0.5-0.8-0.5-1.3c0-0.8,0.3-1.5,0.9-1.9c0.6-0.5,1.3-0.8,2.1-0.8c0.8,0,1.5,0.1,2,0.4
		c0.6,0.3,0.8,0.8,0.9,1.4c0,0.2,0,0.4-0.1,0.6c-0.1,0.2-0.1,0.3-0.2,0.4l-0.1,0.1c-0.3,0-0.6,0-1-0.1c-0.4-0.1-0.6-0.2-0.8-0.4
		l0.1-1.4c-0.1-0.1-0.4-0.2-0.7-0.2c-0.3,0-0.6,0.2-0.8,0.5c-0.2,0.3-0.3,0.7-0.2,1.2c0,0.4,0.1,0.8,0.2,1c0.1,0.2,0.3,0.4,0.5,0.5
		c0.3,0.2,0.6,0.3,1,0.4L26,23.7c-0.7,0-1.2,0.2-1.7,0.7c-0.5,0.4-0.7,0.9-0.7,1.6c0,0.4,0.2,0.7,0.4,1s0.6,0.4,1,0.4
		c0.8,0,1.5-0.4,2.3-1.2l0.6,0.5C26.9,27.9,25.7,28.6,24.4,28.6z"/>
	<path class="st3" d="M29.7,26.5l-0.1-4.4c0-1.2-0.1-1.9-0.3-2.3l-0.7-1l0-0.2c0.7-0.2,1.6-0.3,2.8-0.3c0.2,0.3,0.3,0.8,0.3,1.5
		c0,0.7,0,1.7,0,3c-0.1,1.2-0.1,2.2,0,2.9s0.2,1,0.5,1c0.2,0,0.5-0.2,0.8-0.5c0.3-0.3,0.6-0.7,0.9-1c0.1-2.1,0.2-3.5,0.2-4.3
		c0-0.7-0.2-1.4-0.4-2c0.5-0.3,1.3-0.5,2.4-0.7c0.1,0.3,0.2,0.8,0.2,1.4c0,0.6,0,1.7-0.2,3.2s-0.2,2.5-0.2,3c0,0.5,0.2,0.7,0.5,0.7
		c0.3,0,0.7-0.3,1.1-0.9c0.5-0.6,0.9-1.2,1.3-2.1c0.4-0.8,0.6-1.6,0.6-2.2l-1.5-0.8c0-0.6,0.2-1,0.3-1.5c0.2-0.4,0.4-0.7,0.5-0.8
		L39,18c0.6,0,1,0.1,1.3,0.4c0.3,0.3,0.5,0.6,0.5,1c0,0.8-0.1,1.6-0.5,2.7c-0.3,1-0.8,2-1.3,2.9c-0.5,0.9-1.1,1.7-1.8,2.3
		s-1.3,1-1.9,1c-0.4,0-0.7-0.1-1-0.5c-0.3-0.3-0.4-0.8-0.5-1.3c-0.4,0.6-0.8,1-1.3,1.4c-0.4,0.3-0.9,0.5-1.3,0.5s-0.8-0.1-1.1-0.5
		C29.8,27.6,29.7,27.1,29.7,26.5z"/>
	<path class="st3" d="M41.3,27.8c-0.2-0.2-0.3-0.4-0.3-0.7c0-0.3,0.1-0.6,0.4-0.8c0.2-0.2,0.5-0.4,0.9-0.4s0.6,0.1,0.8,0.3
		c0.2,0.2,0.3,0.4,0.3,0.7c0,0.3-0.1,0.6-0.4,0.8S42.4,28,42,28C41.7,28,41.4,27.9,41.3,27.8z M44.2,18.5c0,0.9-0.2,2.4-0.8,4.4
		c0,0.2-0.1,0.5-0.2,0.9s-0.2,0.7-0.3,1c-0.2,0.1-0.5,0.1-0.7,0.1s-0.4,0-0.5,0c0.3-2,0.4-3.8,0.3-5.4L42,18.3
		c0.8-0.3,1.5-0.4,2.1-0.5C44.2,17.9,44.2,18.1,44.2,18.5z"/>
</g>
<path class="st0" d="M0.4,3.5L47.2,3l25.7-2L54.1,19.1l16.7,19.1c0,0-16.9,1.8-18.6,1.8l-50,1.6C1,39.5,6.5,17,0.9,3.7"/>
<path class="st1" d="M0.4,3.5c42.1,0.4,18.1,0.8,72-2.4 M53.8,18.9c13.8,15.9,8.1,10.5,16.4,17.9 M70.8,38.1
	c-37.6,3.2-14.6,1.6-69.1,3.6 M71.8,1L54.2,18.9 M0.8,2.9c5.7,12.5,1.3,26,1,38.8"/>
<g class="st2">
	<path class="st3" d="M11.4,27.5c-0.2,0.1-0.4,0.2-0.7,0.2c-0.3,0-0.7-0.1-1.2-0.4C9,27,8.6,26.8,8.2,26.7c-0.2,0.3-0.4,0.5-0.7,0.7
		s-0.4,0.3-0.5,0.3c-0.1,0-0.2-0.2-0.5-0.5c-0.2-0.3-0.4-0.6-0.4-0.7c0-0.1,0.1-0.2,0.3-0.4c0.2-0.2,0.5-0.3,0.7-0.4
		c0.2-0.5,0.3-1.2,0.5-2.1s0.3-1.8,0.4-2.8c0-0.1,0-0.3-0.1-0.4c-0.1-0.2-0.2-0.3-0.3-0.4l-0.1-0.2l0-0.2c0.4-0.1,1.2-0.2,2.2-0.3
		c0.1,0.2,0.2,0.4,0.2,0.8c0,0.3-0.1,0.8-0.2,1.5c-0.2,0.7-0.4,1.5-0.7,2.4c-0.3,1-0.5,1.5-0.5,1.7c0,0,0.1,0,0.3,0.1
		C9.1,26,9.2,26,9.2,26c0,0,0.1,0,0.3,0.1c0.1,0,0.3,0,0.3,0.1c0.1,0,0.2,0,0.3,0c0.2,0,0.5,0,0.7,0s0.4-0.1,0.4-0.2l0.3-0.6
		l0.4,0.1c0,0.5,0,1-0.2,1.4C11.7,27.1,11.5,27.3,11.4,27.5z"/>
	<path class="st3" d="M18.3,20.2c0.2,0.3,0.4,0.6,0.5,0.9c0.1,0.3,0.2,0.7,0.2,1.1c0,0.4,0,0.8-0.1,1.3s-0.2,0.9-0.4,1.4
		c-0.2,0.5-0.4,0.9-0.7,1.2c-0.3,0.4-0.7,0.7-1.1,0.9s-1,0.4-1.5,0.4c-0.8,0-1.4-0.2-1.9-0.8c-0.5-0.6-0.7-1.3-0.7-2.2
		c0-0.9,0.1-1.7,0.4-2.5c0.3-0.8,0.7-1.4,1.3-1.9c0.6-0.5,1.2-0.8,2-0.8c0.5,0,0.9,0.1,1.3,0.2C17.8,19.6,18.1,19.9,18.3,20.2z
		 M15.5,26.7c0.4,0,0.6-0.2,0.9-0.5c0.2-0.3,0.4-0.7,0.5-1.2c0.2-1,0.3-2,0.3-3c0-1.3-0.4-1.9-1.1-1.9c-0.4,0-0.7,0.3-1,0.7
		c-0.5,0.9-0.8,2.1-0.7,3.7c0,0.9,0.1,1.4,0.2,1.6c0,0.1,0.1,0.2,0.2,0.3C14.9,26.6,15.1,26.7,15.5,26.7z"/>
	<path class="st3" d="M20.5,25.7l0-3.6c0-0.9-0.1-1.6-0.2-1.8l-0.6-0.8l0-0.2c0.5-0.1,1.3-0.2,2.3-0.3c0.2,0.2,0.2,0.6,0.3,1.2
		c0,0.6,0,1.4,0,2.4c0,1-0.1,1.8,0,2.3c0,0.5,0.2,0.8,0.4,0.8c0.2,0,0.4-0.1,0.6-0.4c0.3-0.3,0.5-0.5,0.7-0.8
		c0.1-1.7,0.1-2.9,0.1-3.5c0-0.6-0.1-1.1-0.3-1.7c0.4-0.2,1-0.4,2-0.5c0.1,0.3,0.1,0.6,0.2,1.1c0,0.5,0,1.4-0.1,2.6
		c-0.1,1.2-0.2,2-0.1,2.4c0,0.4,0.1,0.6,0.4,0.6c0.2,0,0.5-0.2,0.9-0.7s0.7-1,1-1.7c0.3-0.7,0.5-1.3,0.5-1.8l-1.2-0.7
		c0-0.5,0.1-0.8,0.3-1.2c0.2-0.3,0.3-0.6,0.4-0.7l0.2-0.2c0.5,0,0.8,0.1,1.1,0.3c0.3,0.2,0.4,0.5,0.4,0.8c0,0.6-0.1,1.3-0.4,2.2
		c-0.3,0.8-0.6,1.6-1.1,2.3c-0.4,0.7-0.9,1.3-1.5,1.9c-0.6,0.5-1.1,0.8-1.6,0.8c-0.3,0-0.5-0.1-0.8-0.4s-0.4-0.6-0.4-1
		c-0.3,0.5-0.7,0.8-1,1.1c-0.4,0.3-0.7,0.4-1,0.4c-0.3,0-0.6-0.1-0.9-0.4C20.6,26.6,20.5,26.2,20.5,25.7z"/>
	<path class="st3" d="M33.9,18.7l2.2,0l1.2-0.1c0,0.1,0,0.3,0,0.5c0,0.2,0,0.3-0.1,0.4c-0.1,0.1-0.1,0.1-0.3,0.1s-0.4,0-0.9,0
		c-0.4,0-0.8,0-1,0l-0.4,0c0,0.3-0.2,1.2-0.4,2.8c0.6-0.1,1-0.1,1.4-0.1s0.7,0,0.9,0.1c0,0.3-0.1,0.6-0.2,0.8
		c-0.3-0.1-0.7-0.1-1.2-0.1c-0.4,0-0.8,0.1-1.1,0.1c-0.2,1.4-0.3,2.4-0.3,3.1l0,0.2c-0.3,0.2-0.8,0.3-1.7,0.3l-0.1,0
		c0-0.5,0.1-1.6,0.4-3.2c0.3-1.6,0.5-2.8,0.5-3.5c0-0.1,0-0.3-0.1-0.4s-0.2-0.3-0.3-0.4L32.5,19l0-0.2
		C32.9,18.8,33.4,18.7,33.9,18.7z"/>
	<path class="st3" d="M37.3,26.4c0,0.2-0.2,0.3-0.3,0.3c-0.2,0-0.4-0.1-0.6-0.3c0.2-0.7,0.6-1.8,1.3-3.3c0.7-1.5,1.1-2.6,1.3-3.4
		c0-0.1,0-0.2,0-0.3c0-0.1-0.1-0.3-0.3-0.5l-0.1-0.1l0-0.1c0.6-0.2,1.3-0.3,2.1-0.3l0.7,0c0.1,0.1,0.2,0.3,0.2,0.5
		c0.1,0.6,0.3,2,0.3,4.4c0,0.9,0.1,1.6,0.3,1.9c0.1,0.1,0.1,0.2,0.2,0.2s0.2-0.1,0.5-0.2l0.1-0.1l0.2,0.4c-0.3,0.3-0.6,0.5-0.9,0.7
		c-0.3,0.2-0.7,0.3-1,0.3c-0.8,0-1.2-0.6-1.2-1.7l0-0.9c-0.2,0-0.5-0.1-0.9,0c-0.4,0-0.8,0.1-1.3,0.2C37.7,24.9,37.4,25.7,37.3,26.4
		z M40.3,23.1l0-1.3c0-1.1-0.1-1.9-0.2-2.3c-0.1,0-0.1,0-0.1,0c-0.2,0.6-0.4,1.1-0.5,1.5c-0.2,0.4-0.4,0.8-0.6,1.3
		c-0.2,0.5-0.3,0.8-0.4,0.9L40.3,23.1z"/>
	<path class="st3" d="M44.4,18.3l3.8,0l1.1-0.1c0,0.2,0,0.3,0.1,0.5c0,0.2,0,0.3-0.1,0.4c-0.1,0.1-0.2,0.1-0.3,0.1
		c0,0-0.5,0-1.6-0.1c0,0.3-0.1,0.9-0.3,1.8c-0.2,0.8-0.3,1.7-0.5,2.7c-0.1,0.9-0.2,1.8-0.2,2.5c-0.3,0.2-0.9,0.3-1.8,0.3l-0.1,0
		c0-0.4,0.2-1.6,0.5-3.5c0.4-2,0.5-3.1,0.5-3.6c0,0,0-0.1,0-0.2l-0.5,0c-0.6,0-1.1,0.1-1.4,0.3c-0.2-0.2-0.3-0.5-0.4-1
		C43.5,18.3,43.9,18.3,44.4,18.3z"/>
	<path class="st3" d="M49.3,26c-0.2-0.1-0.2-0.3-0.2-0.6s0.1-0.5,0.3-0.7c0.2-0.2,0.4-0.3,0.7-0.3c0.3,0,0.5,0.1,0.6,0.2
		c0.2,0.1,0.2,0.3,0.2,0.6s-0.1,0.5-0.3,0.7c-0.2,0.2-0.4,0.3-0.7,0.3C49.7,26.2,49.5,26.2,49.3,26z M51.7,18.5
		c0,0.7-0.2,1.9-0.6,3.5c0,0.1-0.1,0.4-0.2,0.7c-0.1,0.3-0.2,0.6-0.2,0.8c-0.2,0.1-0.4,0.1-0.5,0.1c-0.2,0-0.3,0-0.4,0
		c0.2-1.6,0.3-3.1,0.3-4.3l-0.1-0.9c0.6-0.2,1.2-0.3,1.7-0.4C51.7,18.1,51.7,18.2,51.7,18.5z"/>
</g>
</svg>
