<svg xmlns="http://www.w3.org/2000/svg" width="37" height="36" viewBox="0 0 37 36">
    <g fill="none" fill-rule="evenodd">
        <path fill="#F2F4DB" stroke="#6C7138" d="M20.884 33.768c.519-.247.78-.828.927-1.379.201-.751.27-1.553.067-2.305-.202-.75-.699-1.445-1.41-1.776-.51-.237-1.087-.276-1.65-.297-.556-.021-1.124-.027-1.655.138-1.052.328-1.812 1.31-2.062 2.374-.262 1.11-.01 2.342.718 3.226.728.885 1.928 1.384 3.069 1.22 1.141-.163 2.168-1.01 2.482-2.107M9.043 28.944c.445-.212.669-.71.795-1.182.172-.644.23-1.331.058-1.975-.173-.644-.6-1.24-1.21-1.523-.436-.203-.93-.237-1.413-.255-.477-.018-.964-.022-1.419.12-.902.28-1.553 1.122-1.768 2.033-.224.952-.008 2.008.616 2.766s1.653 1.186 2.63 1.046c.979-.14 1.86-.866 2.128-1.807M5.203 18.12c.37-.177.557-.591.662-.985.144-.537.192-1.11.048-1.646-.144-.537-.5-1.033-1.007-1.269-.364-.17-.777-.197-1.179-.212-.397-.015-.802-.02-1.182.099-.752.234-1.294.936-1.473 1.695-.187.793-.007 1.673.513 2.305.52.632 1.377.988 2.192.871.815-.117 1.549-.721 1.773-1.505M8.362 8.296c.297-.141.446-.473.53-.788.115-.43.154-.888.039-1.317-.116-.43-.4-.826-.807-1.015-.29-.135-.62-.158-.942-.17-.318-.012-.642-.015-.946.08-.601.187-1.035.748-1.178 1.355-.15.635-.006 1.339.41 1.844.416.506 1.102.79 1.754.697.652-.093 1.239-.577 1.418-1.204M16.522 3.472c.222-.106.334-.355.397-.59.086-.323.115-.667.029-.989-.087-.322-.3-.62-.605-.76-.218-.102-.465-.12-.707-.128-.238-.01-.481-.012-.709.06-.451.14-.776.56-.884 1.016a1.62 1.62 0 0 0 .308 1.383c.312.38.826.593 1.315.523.49-.07.93-.433 1.064-.903M24.681 4.648c.148-.07.223-.236.265-.394.057-.215.077-.444.02-.658a.777.777 0 0 0-.404-.508c-.145-.068-.31-.079-.471-.085a1.41 1.41 0 0 0-.473.04c-.3.093-.518.374-.59.678a1.08 1.08 0 0 0 .206.922c.208.252.55.395.877.348a.876.876 0 0 0 .71-.602"/>
        <path fill="#89113A" stroke="#89113A" d="M34.565 14.416c.667-.318 1.002-1.064 1.192-1.773.258-.966.346-1.997.087-2.963-.26-.966-.9-1.859-1.814-2.284-.655-.304-1.397-.355-2.12-.382-.715-.027-1.446-.034-2.128.178-1.354.421-2.33 1.685-2.653 3.051-.336 1.428-.011 3.011.924 4.149.936 1.137 2.479 1.779 3.946 1.568 1.467-.21 2.788-1.298 3.191-2.709"/>
        <path fill="#F2F4DB" stroke="#6C7138" d="M32.724 27.592c.594-.283.891-.946 1.06-1.576.23-.859.308-1.775.077-2.634-.23-.858-.8-1.652-1.612-2.03-.582-.27-1.242-.316-1.885-.34-.636-.024-1.285-.03-1.891.159-1.204.374-2.071 1.497-2.358 2.712-.3 1.27-.01 2.676.821 3.688.832 1.01 2.203 1.58 3.507 1.394 1.304-.187 2.478-1.154 2.837-2.409"/>
    </g>
</svg>
