<svg xmlns="http://www.w3.org/2000/svg" width="22" height="35" viewBox="0 0 22 35">
    <g fill="none" fill-rule="evenodd">
    <path fill="#8D9250" stroke="#6C7138" d="M1.38 13.886c-.444-2.613-.511-5.497.883-7.712.658-1.044 1.502-2.347 2.472-3.076.931-.7 1.804-1.496 3.139-1.76 1.2-.238 2.331-.09 3.552-.053 1.995.061 4.056.695 5.459 2.183 1.033 1.096 2.206 2.812 2.595 4.298 1.365 5.22-.309 10.837-3.459 15.125-1.177 1.603-2.79 3.17-4.713 3.675-1.876.493-3.415-.693-4.792-1.998-2.87-2.72-4.47-6.754-5.136-10.682z"/>
    <path stroke="#6C7138" d="M6.592 30.098c-.095.178-.186.445-.073.6.048.067.12.085.187.093.62.077 1.215-.336 1.834-.425 1.371-.197 2.697 1.201 4.056.872.292-.07.604-.26.718-.65.095-.324.022-.709-.125-.991-.147-.282-.359-.48-.57-.664-.235-.206-.483-.406-.758-.452-.213-.036-.428.023-.64.069-.949.205-1.873.103-2.808-.164-.972-.277-1.241.627-1.821 1.712z"/>
    </g>
</svg>
