<svg xmlns="http://www.w3.org/2000/svg" width="63" height="42" viewBox="0 0 63 42">
    <g fill="none" fill-rule="evenodd">
        <path fill="#89113A" stroke="#89113A" d="M43.676 14.053c-.44-2.71-.507-5.698.878-7.994.653-1.083 1.492-2.433 2.455-3.19.925-.725 1.792-1.55 3.118-1.824C51.32.8 52.443.951 53.657.99c1.98.064 4.028.721 5.422 2.264 1.026 1.135 2.191 2.915 2.577 4.455 1.357 5.411-.306 11.233-3.435 15.678-1.17 1.661-2.772 3.286-4.682 3.81-1.864.51-3.392-.72-4.76-2.072-2.852-2.82-4.44-7-5.103-11.072z"/>
        <path stroke="#89113A" d="M48.832 30.848c-.095.177-.186.445-.073.6.048.067.12.084.187.092.62.077 1.215-.335 1.834-.424 1.372-.198 2.697 1.2 4.056.871.292-.07.604-.26.718-.649.095-.324.022-.71-.125-.992-.147-.282-.359-.48-.569-.664-.236-.206-.484-.406-.759-.452-.213-.036-.428.023-.64.069-.949.205-1.873.103-2.808-.164-.972-.277-1.24.627-1.821 1.713z"/>
        <path fill="#F2F4DB" stroke="#89113A" d="M48.252 9.474c.086 1.46.475 3.043 1.617 3.893.864.642 1.989.735 3.05.748.733.008 1.485-.014 2.164-.301 3.054-1.29 2.886-7.077.034-8.523-3.104-1.573-7.082.51-6.865 4.183z"/>
        <path stroke="#8D9250" d="M52.964 34.736C37.5 45.016 9.972 23.686 1.324 41.18"/>
    </g>
</svg>
