<?xml version="1.0" encoding="utf-8"?>
<!-- Generator: Adobe Illustrator 21.1.0, SVG Export Plug-In . SVG Version: 6.00 Build 0)  -->
<svg version="1.1" id="Layer_1" xmlns="http://www.w3.org/2000/svg" xmlns:xlink="http://www.w3.org/1999/xlink" x="0px" y="0px"
	 viewBox="0 0 121.2 42" style="enable-background:new 0 0 121.2 42;" xml:space="preserve">
<style type="text/css">
	.st0{fill:none;stroke:#6C7138;}
	.st1{enable-background:new    ;}
	.st2{fill:#222222;}
	.st3{fill:#89113A;}
	.st4{fill:#FFFFFF;}
</style>
<path class="st0" d="M0.4,2.9c42.1,0.4,18,0.7,71.7-0.2 M53.8,18.3c13.8,15.9,8.1,10.5,16.4,17.9 M70.8,37.5
	C33.2,40.7,56.2,39.1,1.7,41 M69,3.9L54.2,18.3 M0.8,2.3c5.7,12.5,1.3,26,1,38.8"/>
<g class="st1">
	<path class="st2" d="M12.7,28.3l-0.3-10l1.4,0l5.5,7.7L19,18l1.3,0l0.3,10l-1.4,0l-5.5-7.7l0.3,7.9L12.7,28.3z"/>
	<path class="st2" d="M22.8,27.9l-0.3-10l7.2-0.3l0,1.2L23.9,19l0.1,3.1l5.5-0.2l0,1.2L24,23.3l0.1,3.4l6.1-0.2l0,1.2L22.8,27.9z"/>
	<path class="st2" d="M33.9,27.5l-3-9.9l1.4,0l1.8,6.5c0.2,0.7,0.4,1.4,0.5,2c0.2-1.1,0.3-1.7,0.4-1.9l1.7-6.8l1.6-0.1l1.6,5
		c0.4,1.2,0.7,2.4,0.9,3.5c0.1-0.6,0.2-1.4,0.4-2.2l1.3-6.5l1.3,0l-2.4,10.1l-1.3,0l-2.4-7.6c-0.2-0.6-0.3-1-0.4-1.2
		c-0.1,0.5-0.2,0.9-0.3,1.2l-1.9,7.7L33.9,27.5z"/>
	<path class="st2" d="M45.8,24.6l-0.6-5.3l-0.1-2.2l1.5-0.1l0.1,2.2l-0.2,5.3L45.8,24.6z M45.5,27.1l0-1.4l1.4,0l0,1.4L45.5,27.1z"
		/>
</g>
<path class="st3" d="M0.4,2.9l46.9,0.2l72.2-2.4l-17.7,17.7l16.7,19.1c0,0-64.6,1.8-66.3,1.8l-50,1.6C1,38.9,6.5,16.3,0.9,3"/>
<path class="st0" d="M0.4,2.9C42.5,3.4,65.5,3,119.2,1 M102,18.4c13.8,15.9,8.5,11.2,16.8,18.6 M118.5,37.7
	C81.3,39.1,56.2,39.1,1.7,41 M120,0.4l-17.8,18.1 M0.8,2.3c5.7,12.5,1.3,26,1,38.8"/>
<g class="st1">
	<path class="st4" d="M13.5,28c-0.2,0.2-0.5,0.3-0.8,0.3c-0.3,0-0.8-0.2-1.5-0.5c-0.7-0.4-1.2-0.6-1.6-0.7c-0.2,0.3-0.5,0.6-0.8,0.9
		c-0.3,0.2-0.5,0.4-0.6,0.4c-0.1,0-0.3-0.2-0.6-0.6c-0.3-0.4-0.4-0.7-0.5-0.9c0-0.1,0.1-0.3,0.4-0.5c0.3-0.2,0.6-0.4,0.9-0.5
		c0.2-0.6,0.4-1.4,0.6-2.6c0.2-1.1,0.4-2.3,0.5-3.5c0-0.1-0.1-0.3-0.2-0.5c-0.1-0.2-0.2-0.4-0.3-0.5l-0.1-0.2l0-0.2
		c0.6-0.2,1.5-0.3,2.7-0.3c0.1,0.2,0.2,0.5,0.2,0.9c0,0.4-0.1,1-0.3,1.9c-0.2,0.8-0.5,1.8-0.9,3c-0.4,1.2-0.6,1.9-0.7,2.1
		c0,0,0.2,0,0.4,0.1c0.2,0,0.3,0.1,0.4,0.1s0.2,0,0.4,0.1c0.2,0,0.3,0.1,0.4,0.1c0.1,0,0.2,0,0.4,0c0.3,0,0.6,0.1,0.8,0
		c0.3,0,0.4-0.1,0.5-0.2l0.4-0.7l0.5,0.1c0,0.6-0.1,1.2-0.2,1.7C13.9,27.6,13.7,27.9,13.5,28z"/>
	<path class="st4" d="M17.2,26.5c0,0.2,0.1,0.3,0.2,0.3c0.1,0,0.3-0.1,0.8-0.4l0.3,0.5c-0.8,0.8-1.5,1.2-2.2,1.2
		c-0.4,0-0.7-0.1-0.9-0.4c-0.2-0.3-0.3-0.6-0.3-1c0-0.4,0.2-1.5,0.6-3.3s0.6-3.1,0.6-3.7c0-0.1-0.1-0.3-0.2-0.5
		c-0.1-0.2-0.2-0.4-0.3-0.5l-0.1-0.2l0-0.2c0.5-0.2,1.4-0.3,2.6-0.3c0.1,0.2,0.2,0.5,0.2,0.9c0,0.4-0.2,1.6-0.6,3.5
		C17.3,24.3,17.1,25.7,17.2,26.5z"/>
	<path class="st4" d="M29.9,27.6c-0.4,0-0.6-0.1-0.9-0.3c-0.2-0.2-0.3-0.6-0.4-1c0-0.4,0.1-1.5,0.5-3.2s0.5-2.8,0.5-3.3
		c0-0.5-0.2-0.7-0.6-0.7c-0.5,0-1.1,0.3-1.6,0.7c0,0.5-0.2,1.4-0.5,2.7c-0.3,1.3-0.5,2.2-0.5,2.8c-0.1,0.6-0.1,1.1-0.1,1.4
		c0,0.3,0,0.5,0,0.6c-0.4,0.2-1,0.3-1.9,0.3l-0.3,0c0-0.8,0.1-2.1,0.5-4c0.4-1.9,0.6-3.2,0.5-3.6c0-0.5-0.2-0.7-0.5-0.7
		c-0.5,0-1.1,0.3-1.7,0.8c-0.1,0.5-0.2,1.4-0.5,2.5c-0.5,2.7-0.8,4.3-0.8,4.9c-0.4,0.2-1,0.3-1.9,0.3l-0.3,0c0-0.4,0.2-1.7,0.6-3.7
		c0.4-2.1,0.6-3.6,0.7-4.6c0-0.1-0.1-0.3-0.2-0.5c-0.1-0.2-0.2-0.4-0.3-0.5l-0.1-0.2l0-0.2c0.5-0.2,1.4-0.3,2.7-0.3
		c0.1,0.2,0.2,0.5,0.2,0.8c0,0.1,0,0.3,0,0.6c1-1,2-1.5,2.8-1.5c0.4,0,0.7,0.1,1,0.4c0.3,0.3,0.5,0.6,0.5,1c1.1-1,2-1.5,2.8-1.5
		c0.5,0,0.9,0.1,1.2,0.4c0.3,0.3,0.5,0.7,0.5,1.3c0,0.6-0.1,1.7-0.5,3.3c-0.3,1.6-0.5,2.7-0.5,3.4c0,0.3,0.1,0.4,0.2,0.4
		c0.1,0,0.3-0.1,0.7-0.3l0.2-0.1l0.3,0.5c-0.4,0.4-0.8,0.6-1.2,0.9C30.6,27.5,30.3,27.6,29.9,27.6z M21.8,22.3
		C21.8,22.3,21.8,22.3,21.8,22.3L21.8,22.3z"/>
	<path class="st4" d="M35.3,25.8c0,0.2,0.1,0.3,0.2,0.3c0.1,0,0.3-0.1,0.8-0.4l0.3,0.5c-0.8,0.8-1.5,1.2-2.2,1.2
		c-0.4,0-0.7-0.1-0.9-0.4c-0.2-0.3-0.3-0.6-0.3-1c0-0.4,0.2-1.5,0.6-3.3c0.4-1.8,0.6-3.1,0.6-3.7c0-0.1-0.1-0.3-0.2-0.5
		c-0.1-0.2-0.2-0.4-0.3-0.5l-0.1-0.2l0-0.2c0.5-0.2,1.4-0.3,2.6-0.3c0.1,0.2,0.2,0.5,0.2,0.9c0,0.4-0.2,1.6-0.6,3.5
		C35.5,23.7,35.3,25.1,35.3,25.8z"/>
	<path class="st4" d="M38.5,17.2l4.7,0l1.3-0.1c0,0.2,0.1,0.4,0.1,0.6c0,0.2,0,0.4-0.1,0.5c-0.1,0.1-0.2,0.1-0.4,0.2
		c0,0-0.7,0-2-0.1c0,0.4-0.1,1.1-0.3,2.2c-0.2,1-0.4,2.1-0.6,3.3c-0.2,1.2-0.3,2.2-0.2,3.1c-0.4,0.2-1.1,0.3-2.2,0.4l-0.1,0
		c0-0.5,0.2-1.9,0.6-4.4c0.4-2.4,0.7-3.9,0.6-4.4c0,0,0-0.1,0-0.2l-0.6,0c-0.8,0-1.3,0.2-1.8,0.4c-0.2-0.3-0.4-0.7-0.4-1.2
		C37.4,17.3,37.9,17.2,38.5,17.2z"/>
	<path class="st4" d="M47.4,27c-0.7,0-1.3-0.1-1.9-0.5c-0.3-0.2-0.6-0.4-0.8-0.8c-0.2-0.3-0.3-0.7-0.3-1.2c0-0.8,0.2-1.5,0.8-2.1
		c0.5-0.5,1.2-0.9,2-1c-0.5-0.1-1-0.3-1.3-0.7c-0.3-0.3-0.5-0.8-0.5-1.3c0-0.8,0.3-1.5,0.9-1.9c0.6-0.5,1.3-0.8,2.1-0.8
		c0.8,0,1.5,0.1,2,0.4c0.6,0.3,0.8,0.8,0.9,1.4c0,0.2,0,0.4-0.1,0.6c-0.1,0.2-0.1,0.3-0.2,0.4l-0.1,0.1c-0.3,0-0.6,0-1-0.1
		s-0.6-0.2-0.8-0.4l0.1-1.4c-0.1-0.1-0.4-0.2-0.7-0.2s-0.6,0.2-0.8,0.5c-0.2,0.3-0.3,0.7-0.2,1.2c0,0.4,0.1,0.8,0.2,1
		c0.1,0.2,0.3,0.4,0.5,0.5c0.3,0.2,0.6,0.3,1,0.4l-0.1,0.8c-0.7,0-1.2,0.2-1.7,0.7c-0.5,0.4-0.7,0.9-0.7,1.6c0,0.4,0.2,0.7,0.4,1
		c0.3,0.3,0.6,0.4,1,0.4c0.8,0,1.5-0.4,2.3-1.2l0.6,0.5C50,26.3,48.8,27,47.4,27z"/>
	<path class="st4" d="M55.5,26.7c-0.5,0-1.1-0.1-1.7-0.2c-0.5,0.1-0.9,0.2-1.3,0.2c-0.4,0-0.6,0-0.7,0c0-0.6,0.3-2,0.7-4.2
		c0.4-2.3,0.6-3.5,0.6-3.8c0-0.3-0.1-0.6-0.2-0.8c-0.1-0.2-0.3-0.4-0.4-0.5l-0.2-0.1l0-0.2c0.2-0.1,0.7-0.2,1.5-0.3
		c0.7-0.1,1.4-0.2,2-0.2c1.3,0,2.3,0.2,3,0.8c0.7,0.6,1.1,1.5,1.1,2.8c0,1.1-0.1,2.1-0.4,3c-0.3,1-0.8,1.8-1.5,2.5
		C57.2,26.3,56.4,26.7,55.5,26.7z M56.1,17.5c-0.2,0-0.5,0-0.8,0.1c-0.1,1-0.3,2.4-0.6,4.4c-0.4,1.9-0.6,3.1-0.6,3.7
		c0.2,0.1,0.5,0.1,0.9,0.1s0.8-0.2,1.1-0.5c0.3-0.3,0.6-0.7,0.8-1.2c0.2-0.5,0.4-1,0.5-1.6c0.2-1,0.3-2,0.3-2.8s-0.2-1.4-0.4-1.7
		C57,17.6,56.7,17.5,56.1,17.5z"/>
	<path class="st4" d="M64.5,16.3l4.7,0l1.3-0.1c0,0.2,0.1,0.4,0.1,0.6c0,0.2,0,0.4-0.1,0.5c-0.1,0.1-0.2,0.1-0.4,0.2
		c0,0-0.7,0-2-0.1c0,0.4-0.1,1.1-0.3,2.2c-0.2,1-0.4,2.1-0.6,3.3c-0.2,1.2-0.3,2.2-0.2,3.1c-0.4,0.2-1.1,0.3-2.2,0.4l-0.1,0
		c0-0.5,0.2-1.9,0.6-4.4c0.4-2.4,0.7-3.9,0.6-4.4c0,0,0-0.1,0-0.2l-0.6,0c-0.8,0-1.3,0.2-1.8,0.4c-0.2-0.3-0.4-0.7-0.4-1.2
		C63.4,16.4,63.8,16.3,64.5,16.3z"/>
	<path class="st4" d="M72.8,24.5c0,0.2,0.1,0.3,0.2,0.3c0.1,0,0.3-0.1,0.8-0.4l0.3,0.5c-0.8,0.8-1.5,1.2-2.2,1.2
		c-0.4,0-0.7-0.1-0.9-0.4c-0.2-0.3-0.3-0.6-0.3-1c0-0.4,0.2-1.5,0.6-3.3c0.4-1.8,0.6-3.1,0.6-3.7c0-0.1-0.1-0.3-0.2-0.5
		c-0.1-0.2-0.2-0.4-0.3-0.5l-0.1-0.2l0-0.2c0.5-0.2,1.4-0.3,2.6-0.3c0.1,0.2,0.2,0.5,0.2,0.9c0,0.4-0.2,1.6-0.6,3.5
		C72.9,22.4,72.7,23.8,72.8,24.5z"/>
	<path class="st4" d="M85.5,25.7c-0.4,0-0.6-0.1-0.9-0.3c-0.2-0.2-0.3-0.6-0.4-1c0-0.4,0.1-1.5,0.5-3.2c0.3-1.7,0.5-2.8,0.5-3.3
		c0-0.5-0.2-0.7-0.6-0.7c-0.5,0-1,0.3-1.6,0.7c0,0.5-0.2,1.4-0.5,2.7c-0.3,1.3-0.5,2.2-0.5,2.8c-0.1,0.6-0.1,1.1-0.1,1.4
		c0,0.3,0,0.5,0,0.6c-0.4,0.2-1,0.3-1.9,0.3l-0.3,0c0-0.8,0.1-2.1,0.5-4c0.4-1.9,0.6-3.2,0.5-3.6c0-0.5-0.2-0.7-0.5-0.7
		c-0.5,0-1.1,0.3-1.7,0.8c-0.1,0.5-0.2,1.4-0.5,2.5c-0.5,2.7-0.8,4.3-0.8,4.9c-0.4,0.2-1,0.3-1.9,0.3l-0.3,0c0-0.4,0.2-1.7,0.6-3.7
		c0.4-2.1,0.6-3.6,0.7-4.6c0-0.1-0.1-0.3-0.2-0.5c-0.1-0.2-0.2-0.4-0.3-0.5l-0.1-0.2l0-0.2c0.5-0.2,1.4-0.3,2.7-0.3
		c0.1,0.2,0.2,0.5,0.2,0.8c0,0.1,0,0.3,0,0.6c1-1,2-1.5,2.8-1.5c0.4,0,0.7,0.1,1,0.4c0.3,0.3,0.5,0.6,0.5,1c1.1-1,2-1.5,2.8-1.5
		c0.5,0,0.9,0.1,1.2,0.4c0.3,0.3,0.5,0.7,0.5,1.3c0,0.6-0.1,1.7-0.5,3.3c-0.3,1.6-0.5,2.7-0.5,3.4c0,0.3,0.1,0.4,0.2,0.4
		c0.1,0,0.3-0.1,0.7-0.3l0.2-0.1l0.3,0.5c-0.4,0.4-0.8,0.6-1.2,0.9C86.2,25.6,85.9,25.7,85.5,25.7z M77.4,20.3
		C77.4,20.3,77.4,20.4,77.4,20.3L77.4,20.3z"/>
	<path class="st4" d="M91.5,25.5c-0.7,0-1.3-0.1-1.9-0.5c-0.3-0.2-0.6-0.4-0.8-0.8c-0.2-0.3-0.3-0.7-0.3-1.2c0-0.8,0.2-1.5,0.8-2.1
		c0.5-0.5,1.2-0.9,2-1c-0.5-0.1-1-0.3-1.3-0.7c-0.3-0.3-0.5-0.8-0.5-1.3c0-0.8,0.3-1.5,0.9-1.9c0.6-0.5,1.3-0.8,2.1-0.8
		c0.8,0,1.5,0.1,2,0.4c0.6,0.3,0.8,0.8,0.9,1.4c0,0.2,0,0.4-0.1,0.6c-0.1,0.2-0.1,0.3-0.2,0.4L95,18.3c-0.3,0-0.6,0-1-0.1
		c-0.4-0.1-0.6-0.2-0.8-0.4l0.1-1.4c-0.1-0.1-0.4-0.2-0.7-0.2s-0.6,0.2-0.8,0.5c-0.2,0.3-0.3,0.7-0.2,1.2s0.1,0.8,0.2,1
		c0.1,0.2,0.3,0.4,0.5,0.5c0.3,0.2,0.6,0.3,1,0.4l-0.1,0.8c-0.7,0-1.2,0.2-1.7,0.7c-0.5,0.4-0.7,0.9-0.7,1.6c0,0.4,0.2,0.7,0.4,1
		c0.3,0.3,0.6,0.4,1,0.4c0.8,0,1.5-0.4,2.3-1.2l0.6,0.5C94.1,24.7,92.9,25.4,91.5,25.5z"/>
	<path class="st4" d="M95.9,25c-0.2-0.2-0.3-0.4-0.3-0.7s0.1-0.6,0.4-0.8c0.2-0.2,0.5-0.4,0.9-0.4s0.6,0.1,0.8,0.3
		c0.2,0.2,0.3,0.4,0.3,0.7c0,0.3-0.1,0.6-0.4,0.8c-0.3,0.2-0.5,0.4-0.9,0.4C96.4,25.3,96.1,25.2,95.9,25z M98.9,15.7
		c0,0.9-0.2,2.4-0.8,4.4c0,0.2-0.1,0.5-0.2,0.9c-0.1,0.4-0.2,0.7-0.3,1c-0.2,0.1-0.5,0.1-0.7,0.1s-0.4,0-0.5,0
		c0.3-2,0.4-3.8,0.3-5.4l-0.1-1.2c0.8-0.3,1.5-0.4,2.1-0.5C98.9,15.2,98.9,15.4,98.9,15.7z"/>
</g>
</svg>
