<?xml version="1.0" encoding="UTF-8"?>
<svg width="79px" height="42px" viewBox="0 0 79 42" version="1.1" xmlns="http://www.w3.org/2000/svg" xmlns:xlink="http://www.w3.org/1999/xlink">
    <!-- Generator: Sketch 55.2 (78181) - https://sketchapp.com -->
    <title>New Flag</title>
    <desc>Created with Sketch.</desc>
    <g id="Page-1" stroke="none" stroke-width="1" fill="none" fill-rule="evenodd">
        <g id="New-Flag" fill-rule="nonzero">
            <path d="M1.61785495,2.63934489 L53.6315576,2.55520087 L79.4031035,1.38513474 L59.944059,18.7819862 L76.0121105,38.437229 C76.0121105,38.437229 59.0571462,39.6072952 57.3616497,39.6072952 L1.2910649,40.6510958 C0.225637912,38.5825611 6.49780872,16.2613062 1.36111963,2.77258481" id="Fill-1" fill="#F05C7A" transform="translate(40.284866, 21.018115) rotate(-2.000000) translate(-40.284866, -21.018115) "></path>
            <path d="M16.0966636,27.933011 L15.7546636,27.933011 C15.8026638,27.3930083 16.1206606,25.8060242 16.7086636,23.172011 C17.2966665,20.5379979 17.6626628,18.5670176 17.8066636,17.259011 C17.8066636,17.0670101 17.7436642,16.8360124 17.6176636,16.566011 C17.4916629,16.2960097 17.3626642,16.0770119 17.2306636,15.909011 L17.0506636,15.657011 L17.1046636,15.387011 C17.7766669,15.18301 18.9346553,15.081011 20.5786636,15.081011 C20.7346643,15.3690125 20.8126636,15.6510096 20.8126636,15.927011 C20.8126636,16.2030124 20.7886638,16.545009 20.7406636,16.953011 C22.2406711,15.7050048 23.4646588,15.081011 24.4126636,15.081011 C25.0366667,15.081011 25.5406616,15.285009 25.9246636,15.693011 C26.3086655,16.1010131 26.5006636,16.6710074 26.5006636,17.403011 C26.5006636,18.1350147 26.2456661,19.5300007 25.7356636,21.588011 C25.225661,23.6460213 24.9706636,25.0830069 24.9706636,25.899011 C24.9706636,26.2470128 25.030663,26.421011 25.1506636,26.421011 C25.2586641,26.421011 25.5586611,26.3010122 26.0506636,26.061011 L26.2846636,25.953011 L26.6446636,26.619011 C26.140661,27.0510132 25.6186663,27.4020097 25.0786636,27.672011 C24.5386609,27.9420124 24.0496657,28.077011 23.6116636,28.077011 C23.1736614,28.077011 22.8166649,27.9180126 22.5406636,27.600011 C22.2646622,27.2820094 22.1266636,26.8500138 22.1266636,26.304011 C22.1266636,25.7580083 22.3756611,24.3990219 22.8736636,22.227011 C23.371666,20.0550002 23.6206636,18.669014 23.6206636,18.069011 C23.6206636,17.469008 23.3866659,17.169011 22.9186636,17.169011 C22.21066,17.169011 21.4066681,17.5230075 20.5066636,18.231011 C20.3746629,18.8670142 20.1286654,19.9290036 19.7686636,21.417011 C18.9766596,24.6930274 18.5806636,26.7450069 18.5806636,27.573011 C18.1126612,27.8130122 17.2846695,27.933011 16.0966636,27.933011 Z M27.3286636,24.747011 C27.3286636,23.2470035 27.781659,22.0620154 28.6876636,21.192011 C29.5936681,20.3220067 30.6226578,19.887011 31.7746636,19.887011 C32.4826671,19.887011 33.0646613,20.0610093 33.5206636,20.409011 C33.9766658,20.7570128 34.2046636,21.2220081 34.2046636,21.804011 C34.2046636,22.3860139 34.057665,22.875009 33.7636636,23.271011 C33.4696621,23.667013 33.1126657,23.9730099 32.6926636,24.189011 C31.8406593,24.6090131 31.0606671,24.8730105 30.3526636,24.981011 L29.9206636,25.035011 C30.004664,26.1630167 30.4666594,26.727011 31.3066636,26.727011 C31.594665,26.727011 31.9006619,26.6550117 32.2246636,26.511011 C32.5486652,26.3670103 32.8006627,26.2230117 32.9806636,26.079011 L33.2506636,25.863011 L33.6826636,26.439011 C33.5866631,26.5710117 33.394665,26.7450099 33.1066636,26.961011 C32.8186621,27.1770121 32.5486648,27.3570103 32.2966636,27.501011 C31.6006601,27.8850129 30.8386677,28.077011 30.0106636,28.077011 C29.1826594,28.077011 28.528666,27.783014 28.0486636,27.195011 C27.5686612,26.6070081 27.3286636,25.7910162 27.3286636,24.747011 Z M29.9026636,24.153011 C30.5146666,24.0450105 31.0006618,23.7870131 31.3606636,23.379011 C31.7206654,22.971009 31.9006636,22.4430143 31.9006636,21.795011 C31.9006636,21.1470078 31.7086655,20.823011 31.3246636,20.823011 C30.8686613,20.823011 30.5176648,21.2100072 30.2716636,21.984011 C30.0256623,22.7580149 29.9026636,23.4810077 29.9026636,24.153011 Z M34.9786636,26.385011 L35.1766636,21.687011 C35.1766636,21.279009 34.9606657,20.8590132 34.5286636,20.427011 L34.5646636,20.211011 C34.648664,20.1870109 34.7296632,20.1660111 34.8076636,20.148011 C34.8856639,20.1300109 34.975663,20.1090111 35.0776636,20.085011 C35.1796641,20.0610109 35.2966629,20.0370111 35.4286636,20.013011 C35.5606642,19.9890109 35.6986628,19.9650111 35.8426636,19.941011 C36.1786652,19.9050108 36.4936621,19.887011 36.7876636,19.887011 C37.081665,19.887011 37.3336625,20.0070098 37.5436636,20.247011 C37.7536646,20.4870122 37.8586636,20.8680084 37.8586636,21.390011 C37.8586636,21.9120136 37.7776644,22.6560062 37.6156636,23.622011 C37.4536627,24.5880159 37.3726636,25.3080087 37.3726636,25.782011 C37.3726636,26.2560134 37.4866624,26.493011 37.7146636,26.493011 C38.0866654,26.493011 38.4946613,26.2590134 38.9386636,25.791011 C38.9506636,25.5990101 39.0286636,24.9870162 39.1726636,23.955011 C39.3166643,22.9230059 39.3886636,22.1730134 39.3886636,21.705011 C39.3886636,21.2370087 39.3526639,20.8350127 39.2806636,20.499011 C40.2046682,20.1510093 41.0326599,19.977011 41.7646636,19.977011 C41.9206643,20.0850116 41.9986636,20.4360081 41.9986636,21.030011 C41.9986636,21.624014 41.8966646,22.4460058 41.6926636,23.496011 C41.4886625,24.5460163 41.3866636,25.3080087 41.3866636,25.782011 C41.3866636,26.2560134 41.4826626,26.493011 41.6746636,26.493011 C42.1306658,26.493011 42.6286609,26.1540144 43.1686636,25.476011 C43.7086663,24.7980076 43.9966634,24.2310133 44.0326636,23.775011 L42.8086636,22.407011 C42.8566638,21.8910084 42.9826625,21.4230131 43.1866636,21.003011 C43.3906646,20.5830089 43.5826627,20.2890119 43.7626636,20.121011 L44.0146636,19.887011 C44.5306661,19.887011 44.9206622,20.0250096 45.1846636,20.301011 C45.4486649,20.5770124 45.5806636,20.9010092 45.5806636,21.273011 C45.5806636,22.2210158 45.3466659,23.2230057 44.8786636,24.279011 C44.4106612,25.3350163 43.7806675,26.2320073 42.9886636,26.970011 C42.1966596,27.7080147 41.3926676,28.077011 40.5766636,28.077011 C40.1686615,28.077011 39.823665,27.9600122 39.5416636,27.726011 C39.2596621,27.4920099 39.070664,27.1890129 38.9746636,26.817011 C38.1346594,27.6570152 37.3186675,28.077011 36.5266636,28.077011 C35.9986609,28.077011 35.6086648,27.9120127 35.3566636,27.582011 C35.1046623,27.2520094 34.9786636,26.8530134 34.9786636,26.385011 Z M50.4586636,15.909011 C50.4586636,17.097017 50.0686675,18.9629983 49.2886636,21.507011 C49.2286633,21.711012 49.1176644,22.0800084 48.9556636,22.614011 C48.7936627,23.1480137 48.670664,23.5590096 48.5866636,23.847011 C48.2626619,23.9550116 47.9776648,24.009011 47.7316636,24.009011 C47.4856623,24.009011 47.2666645,23.9970111 47.0746636,23.973011 C47.5066657,21.368998 47.7226636,19.071021 47.7226636,17.079011 L47.6146636,15.567011 C48.6346687,15.2430094 49.5466595,15.081011 50.3506636,15.081011 C50.4226639,15.1890116 50.4586636,15.4650088 50.4586636,15.909011 Z M46.1926636,27.735011 C45.9526624,27.4950098 45.8326636,27.177013 45.8326636,26.781011 C45.8326636,26.385009 45.9976619,26.0370125 46.3276636,25.737011 C46.6576652,25.4370095 47.0386614,25.287011 47.4706636,25.287011 C47.9026657,25.287011 48.2386624,25.4070098 48.4786636,25.647011 C48.7186648,25.8870122 48.8386636,26.2020091 48.8386636,26.592011 C48.8386636,26.982013 48.6676653,27.3270095 48.3256636,27.627011 C47.9836618,27.9270125 47.6026657,28.077011 47.1826636,28.077011 C46.7626615,28.077011 46.4326648,27.9630122 46.1926636,27.735011 Z" id="New!" fill="#FFFFFF" transform="translate(33.106664, 21.579011) rotate(-2.000000) translate(-33.106664, -21.579011) "></path>
        </g>
    </g>
</svg>