<svg xmlns="http://www.w3.org/2000/svg" width="16" height="16" viewBox="0 0 16 16">
    <g fill="none" fill-rule="evenodd" stroke="#6C7138">
        <path fill="#F2F4DB" d="M1.17 6.057l13.694.298a24.197 24.197 0 0 0-.041 6.712l-8.386-.264c-1.373-.043-2.824.039-4.185-.132-1.327-.166-.81-1.305-.772-2.292a19.8 19.8 0 0 0-.31-4.322z"/>
        <path d="M.987 15.245c4.675.19 9.345.193 14.009.009M9.11 6c-.23-.667-.097-1.35.39-2"/>
        <path stroke-width=".5" d="M4.443.305c-.067.257-.976 1.765.023 1.692a.604.604 0 0 0 .44-.232C5.25 1.28 4.538.563 4.576 0M9.443.305c-.067.257-.976 1.765.023 1.692a.604.604 0 0 0 .44-.232C10.25 1.28 9.538.563 9.576 0M11.443 1.305c-.067.257-.976 1.765.023 1.692a.604.604 0 0 0 .44-.232c.343-.485-.369-1.202-.331-1.765"/>
        <path d="M5 4l.133 2M11.21 5L11 6M2 9.627a1.947 1.947 0 0 0 2.349-.043c.304-.238.59-.579.954-.584.442-.006.765.48 1.17.692.98.512 2.02-.687 3.093-.678.613.005 1.166.405 1.746.637.58.231 1.33.236 1.688-.353"/>
    </g>
</svg>
