<svg xmlns="http://www.w3.org/2000/svg" width="28" height="26" viewBox="0 0 28 26">
    <g fill="#F2F4DB" fill-rule="evenodd" stroke="#6C7138">
        <path d="M15.289 15.008c1.26-.601 1.894-2.01 2.252-3.349.488-1.825.654-3.773.164-5.597-.49-1.824-1.699-3.51-3.426-4.314-1.237-.575-2.64-.67-4.006-.722-1.35-.051-2.73-.064-4.019.337-2.556.795-4.4 3.182-5.01 5.763-.636 2.697-.022 5.688 1.745 7.836 1.767 2.149 4.682 3.36 7.453 2.963 2.771-.397 5.266-2.452 6.029-5.117"/>
        <path d="M23.332 24.538c.166.157.377.327.597.267.134-.037.23-.15.318-.258l2.944-3.607-10.07-7.58c-2.277 2.458-1.598 3.107.564 5.448 1.82 1.97 3.703 3.882 5.647 5.73z"/>
    </g>
</svg>
