<?xml version="1.0" encoding="utf-8"?>
<!-- Generator: Adobe Illustrator 16.0.0, SVG Export Plug-In . SVG Version: 6.00 Build 0)  -->
<!DOCTYPE svg PUBLIC "-//W3C//DTD SVG 1.1//EN" "http://www.w3.org/Graphics/SVG/1.1/DTD/svg11.dtd">
<svg version="1.1" id="Capa_1" xmlns="http://www.w3.org/2000/svg" xmlns:xlink="http://www.w3.org/1999/xlink" x="0px" y="0px"
	 width="16px" height="10px" viewBox="0 0 16 10" enable-background="new 0 0 16 10" xml:space="preserve">
<path fill="#F2F4DB" stroke="#6C7138" d="M1,2.419L14.69,2C14.481,4.238,14.585,6.495,15,8.705L6.612,8.88
	C5.239,8.909,3.794,9.066,2.425,8.968c-1.333-0.096-0.876-1.262-0.89-2.25C1.514,5.27,1.335,3.829,1,2.419L1,2.419z"/>
<path fill="#F2F4DB" stroke="#6C7138" d="M2.222,3.611C3.764,4.237,5.229,5.039,6.588,6c0.986-0.945,2.073-1.592,3.234-2.07
	c1.41-0.58,2.937-0.81,4.178-1.873C9.662,1.933,5.318,1.977,1,2.552C1.405,2.986,1.725,3.411,2.222,3.611L2.222,3.611z"/>
</svg>
