<?xml version="1.0" encoding="utf-8"?>
<!-- Generator: Adobe Illustrator 16.0.0, SVG Export Plug-In . SVG Version: 6.00 Build 0)  -->
<!DOCTYPE svg PUBLIC "-//W3C//DTD SVG 1.1//EN" "http://www.w3.org/Graphics/SVG/1.1/DTD/svg11.dtd">
<svg version="1.1" id="Capa_1" xmlns="http://www.w3.org/2000/svg" xmlns:xlink="http://www.w3.org/1999/xlink" x="0px" y="0px"
	 width="26px" height="20px" viewBox="0 0 26 20" enable-background="new 0 0 26 20" xml:space="preserve">
<g>
	<path fill="#89113A" d="M12.665,19.637l-1.08-1.684c3.338-2.142,6.01-3.643,7.961-4.738c1.813-1.018,3.529-1.981,3.823-2.444
		c-0.262-0.477-1.895-1.54-3.618-2.663c-2.188-1.425-5.183-3.376-9.038-6.312l1.212-1.591c3.797,2.891,6.757,4.819,8.918,6.227
		c3.247,2.116,4.591,2.992,4.545,4.405c-0.047,1.417-1.456,2.209-4.862,4.122C18.596,16.043,15.954,17.526,12.665,19.637z
		 M16.055,11.725L0.611,11.49l0.03-2l15.445,0.234L16.055,11.725z"/>
</g>
</svg>
