<?xml version="1.0" encoding="utf-8"?>
<!-- Generator: Adobe Illustrator 16.0.0, SVG Export Plug-In . SVG Version: 6.00 Build 0)  -->
<!DOCTYPE svg PUBLIC "-//W3C//DTD SVG 1.1//EN" "http://www.w3.org/Graphics/SVG/1.1/DTD/svg11.dtd">
<svg version="1.1" id="Capa_1" xmlns="http://www.w3.org/2000/svg" xmlns:xlink="http://www.w3.org/1999/xlink" x="0px" y="0px"
	 width="26px" height="20px" viewBox="-0.5 0 26 20" enable-background="new -0.5 0 26 20" xml:space="preserve">
<g>
	<path fill="#FFFFFF" d="M12.176,19.424l-1.092-1.676c3.287-2.142,5.919-3.644,7.841-4.738c1.791-1.022,3.486-1.989,3.766-2.446
		c-0.246-0.474-1.859-1.541-3.564-2.668c-2.152-1.426-5.104-3.377-8.901-6.313L11.45,0c3.738,2.89,6.654,4.819,8.783,6.228
		c3.104,2.055,4.521,2.992,4.477,4.401c-0.047,1.412-1.436,2.204-4.791,4.118C18.018,15.83,15.414,17.313,12.176,19.424z
		 M15.5,11.517L0.29,11.282l0.031-2l15.21,0.232L15.5,11.517z"/>
</g>
</svg>
