<?xml version="1.0" encoding="utf-8"?>
<!-- Generator: Adobe Illustrator 16.0.0, SVG Export Plug-In . SVG Version: 6.00 Build 0)  -->
<!DOCTYPE svg PUBLIC "-//W3C//DTD SVG 1.1//EN" "http://www.w3.org/Graphics/SVG/1.1/DTD/svg11.dtd">
<svg version="1.1" id="Capa_1" xmlns="http://www.w3.org/2000/svg" xmlns:xlink="http://www.w3.org/1999/xlink" x="0px" y="0px"
	 width="22px" height="22px" viewBox="0 0 22 22" enable-background="new 0 0 22 22" xml:space="preserve">
<g>
	<g>
		<path id="b_2_" fill="#FFFFFF" d="M1.53,9.091c2.344-0.232,4.656-0.707,6.9-1.418c0.547-1.975,1.518-3.773,2.313-5.664
			c1.351,1.563,2.802,3.57,3.836,5.346c1.912,0.448,3.986,0.768,5.949,0.859c-1.444,1.502-2.478,3.466-4.306,4.498
			c0.938,1.904,1.322,4.93,2.263,6.834c-1.729-0.821-5.164-2.496-6.972-3.15c-2.039,0.887-4.489,2.036-5.909,3.715
			c-0.076,0.088,0.834-0.643,0.756-0.557c0.092-2.072,0.112-4.146,0.063-6.221C4.419,12.28,3.216,10.587,1.53,9.091z"/>
		<path fill="#888888" d="M5.802,20.928l0.016-0.356c-0.078,0.042-0.131,0.047-0.215,0.047h-0.32l-0.27-0.582l0.213-0.25
			c0.193-0.229,0.414-0.459,0.656-0.682c0.069-1.814,0.088-3.652,0.053-5.471c-1.305-0.742-2.291-1.748-3.248-2.723
			c-0.473-0.48-0.961-0.979-1.488-1.447L0.345,8.706l1.137-0.113C3.696,8.374,5.897,7.93,8.024,7.275
			C8.419,5.954,8.989,4.7,9.542,3.485c0.252-0.554,0.506-1.107,0.742-1.671l0.313-0.742l0.527,0.61
			c1.357,1.572,2.758,3.514,3.779,5.234c1.932,0.44,3.881,0.717,5.65,0.799l1.102,0.052l-0.764,0.794
			c-0.471,0.488-0.91,1.046-1.336,1.586c-0.787,0.999-1.599,2.028-2.691,2.76c0.393,0.922,0.688,2.021,0.975,3.09
			c0.318,1.188,0.648,2.42,1.098,3.33l0.638,1.289l-2.088-0.994c-1.761-0.84-4.386-2.097-5.953-2.688
			c-1.668,0.73-3.358,1.552-4.623,2.6l0.047,0.105l-0.103,0.113l-0.004,0.105l-0.168,0.087L5.802,20.928z M11.501,15.857
			l0.187,0.068c1.479,0.536,4.018,1.737,5.854,2.614c-0.25-0.727-0.462-1.515-0.669-2.285c-0.317-1.188-0.647-2.416-1.094-3.322
			l-0.209-0.424l0.41-0.232c1.127-0.636,1.937-1.662,2.791-2.748c0.229-0.292,0.465-0.589,0.707-0.881
			c-1.605-0.134-3.318-0.409-5.011-0.805l-0.209-0.049L14.15,7.607c-0.875-1.501-2.066-3.196-3.267-4.659
			c-0.143,0.319-0.287,0.637-0.432,0.952c-0.6,1.317-1.166,2.562-1.539,3.906L8.841,8.068L8.583,8.15
			c-1.93,0.611-3.918,1.052-5.924,1.315c0.254,0.25,0.5,0.5,0.74,0.746c1.012,1.029,1.965,2,3.26,2.682l0.262,0.137l0.006,0.295
			c0.039,1.614,0.033,3.246-0.014,4.867l0.008-0.007l-0.004,0.085c1.301-0.926,2.869-1.666,4.4-2.332L11.501,15.857z"/>
	</g>
</g>
</svg>
