<?xml version="1.0" encoding="utf-8"?>
<!-- Generator: Adobe Illustrator 16.0.0, SVG Export Plug-In . SVG Version: 6.00 Build 0)  -->
<!DOCTYPE svg PUBLIC "-//W3C//DTD SVG 1.1//EN" "http://www.w3.org/Graphics/SVG/1.1/DTD/svg11.dtd">
<svg version="1.1" id="Capa_1" xmlns="http://www.w3.org/2000/svg" xmlns:xlink="http://www.w3.org/1999/xlink" x="0px" y="0px"
	 width="34px" height="32px" viewBox="0 0 34 32" enable-background="new 0 0 34 32" xml:space="preserve">
<path fill="#6C7138" d="M32.195,10.729c-2.946-0.142-6.193-0.612-9.404-1.364c-1.66-2.862-3.967-6.115-6.202-8.743L16.059,0
	l-0.313,0.754c-0.387,0.935-0.801,1.855-1.213,2.773c-0.922,2.055-1.874,4.177-2.51,6.408c-3.546,1.121-7.199,1.874-10.9,2.245
	L0,12.293l0.838,0.756c0.866,0.782,1.666,1.609,2.44,2.409c1.658,1.714,3.227,3.337,5.39,4.548c0.067,3.125,0.037,6.288-0.087,9.414
	c-0.413,0.38-0.796,0.777-1.142,1.193L7.142,30.97l0.313,0.324c0.113,0.115,0.208,0.173,0.32,0.173c0.17,0,0.378-0.138,0.736-0.414
	l-0.016,0.354l1.245-1.421l-0.133-0.142c2.108-1.814,4.992-3.245,7.878-4.526c2.55,0.966,6.925,3.089,9.843,4.505l2.59,1.252
	l-0.628-1.293c-0.745-1.535-1.288-3.589-1.813-5.573c-0.492-1.859-1-3.779-1.687-5.336c1.86-1.188,3.226-2.947,4.549-4.652
	c0.698-0.9,1.42-1.828,2.197-2.647l0.75-0.791L32.195,10.729z"/>
<path fill="#FCF9CE" d="M29.549,13.607c-1.418,1.827-2.757,3.552-4.65,4.635l-0.402,0.232l0.203,0.42
	c0.744,1.532,1.287,3.586,1.813,5.567c0.406,1.54,0.825,3.123,1.348,4.504l-0.092-0.044c-3.011-1.461-7.559-3.67-10.123-4.611
	l-0.19-0.069l-0.185,0.079c-2.735,1.209-5.486,2.548-7.654,4.229c0.1-2.945,0.117-5.917,0.049-8.855l-0.007-0.291L9.4,19.264
	c-2.161-1.148-3.735-2.778-5.402-4.5c-0.544-0.563-1.1-1.14-1.688-1.707c3.489-0.421,6.931-1.175,10.277-2.25l0.258-0.083
	l0.07-0.262c0.615-2.253,1.59-4.424,2.532-6.524c0.305-0.68,0.61-1.358,0.905-2.043c2.08,2.523,4.169,5.52,5.682,8.157l0.108,0.188
	l0.209,0.05c2.967,0.705,5.971,1.176,8.758,1.376C30.564,12.299,30.051,12.961,29.549,13.607L29.549,13.607z"/>
</svg>
