<?xml version="1.0" encoding="utf-8"?>
<!-- Generator: Adobe Illustrator 16.0.0, SVG Export Plug-In . SVG Version: 6.00 Build 0)  -->
<!DOCTYPE svg PUBLIC "-//W3C//DTD SVG 1.1//EN" "http://www.w3.org/Graphics/SVG/1.1/DTD/svg11.dtd">
<svg version="1.1" id="Capa_1" xmlns="http://www.w3.org/2000/svg" xmlns:xlink="http://www.w3.org/1999/xlink" x="0px" y="0px"
	 width="22px" height="22px" viewBox="245.47 19.063 22 22" enable-background="new 245.47 19.063 22 22" xml:space="preserve">
<g>
	<g>
		<path id="b_2_" fill="#F2F4DB" d="M247,28.154c2.344-0.232,4.656-0.707,6.9-1.418c0.547-1.974,1.518-3.773,2.314-5.664
			c1.35,1.563,2.801,3.57,3.836,5.346c1.912,0.448,3.986,0.768,5.949,0.86c-1.445,1.501-2.477,3.465-4.305,4.497
			c0.938,1.904,1.322,4.93,2.262,6.835c-1.73-0.822-5.164-2.497-6.971-3.151c-2.039,0.887-4.49,2.036-5.91,3.715
			c-0.076,0.088,0.834-0.643,0.756-0.557c0.092-2.072,0.113-4.146,0.064-6.22C249.889,31.344,248.686,29.651,247,28.154z"/>
		<path fill="#6C7138" d="M251.271,39.991l0.016-0.356c-0.078,0.042-0.131,0.047-0.215,0.047h-0.32l-0.27-0.583l0.213-0.25
			c0.193-0.229,0.414-0.458,0.656-0.681c0.07-1.815,0.088-3.653,0.053-5.471c-1.305-0.742-2.291-1.748-3.248-2.723
			c-0.473-0.48-0.961-0.979-1.488-1.446l-0.854-0.759l1.137-0.113c2.215-0.219,4.416-0.663,6.543-1.317
			c0.395-1.322,0.965-2.576,1.518-3.79c0.252-0.554,0.506-1.108,0.742-1.671l0.313-0.742l0.527,0.61
			c1.357,1.572,2.758,3.514,3.779,5.234c1.932,0.441,3.881,0.717,5.65,0.799l1.102,0.052l-0.764,0.794
			c-0.471,0.488-0.91,1.046-1.336,1.586c-0.787,0.999-1.598,2.028-2.691,2.759c0.393,0.922,0.688,2.021,0.975,3.09
			c0.318,1.189,0.648,2.42,1.098,3.33l0.637,1.29l-2.088-0.994c-1.76-0.841-4.385-2.097-5.953-2.688
			c-1.668,0.73-3.359,1.552-4.623,2.599l0.047,0.106l-0.102,0.114l-0.004,0.105l-0.168,0.087L251.271,39.991z M256.971,34.921
			l0.186,0.068c1.48,0.536,4.018,1.737,5.854,2.614c-0.25-0.726-0.461-1.514-0.668-2.285c-0.318-1.188-0.648-2.415-1.094-3.322
			l-0.209-0.424l0.41-0.232c1.127-0.636,1.936-1.662,2.791-2.748c0.23-0.292,0.465-0.589,0.707-0.881
			c-1.605-0.134-3.318-0.409-5.01-0.805l-0.209-0.049l-0.109-0.186c-0.875-1.501-2.066-3.196-3.266-4.659
			c-0.143,0.319-0.287,0.636-0.432,0.952c-0.6,1.317-1.166,2.562-1.539,3.906l-0.072,0.262l-0.258,0.082
			c-1.93,0.611-3.918,1.052-5.924,1.315c0.254,0.25,0.5,0.5,0.74,0.747c1.012,1.028,1.965,2,3.26,2.681l0.262,0.137l0.006,0.294
			c0.039,1.615,0.033,3.247-0.014,4.868l0.008-0.007l-0.004,0.085c1.301-0.926,2.869-1.666,4.4-2.332L256.971,34.921z"/>
	</g>
</g>
</svg>
