<?xml version="1.0" encoding="utf-8"?>
<!-- Generator: Adobe Illustrator 16.0.0, SVG Export Plug-In . SVG Version: 6.00 Build 0)  -->
<!DOCTYPE svg PUBLIC "-//W3C//DTD SVG 1.1//EN" "http://www.w3.org/Graphics/SVG/1.1/DTD/svg11.dtd">
<svg version="1.1" id="Capa_1" xmlns="http://www.w3.org/2000/svg" xmlns:xlink="http://www.w3.org/1999/xlink" x="0px" y="0px"
	 width="49px" height="21px" viewBox="0 0 49 21" enable-background="new 0 0 49 21" xml:space="preserve">
<g>
	<g transform="translate(1 .476)">
		<g>
			<path id="a" fill="#F2F4DB" d="M8,2h32c4.418,0,8,3.582,8,8l0,0c0,4.418-3.582,8-8,8H8c-4.418,0-8-3.582-8-8l0,0
				C0,5.582,3.582,2,8,2z"/>
		</g>
		<path fill="none" stroke="#6C7138" d="M8,2.5h32c4.143,0,7.5,3.358,7.5,7.5l0,0c0,4.142-3.357,7.5-7.5,7.5H8
			c-4.142,0-7.5-3.358-7.5-7.5l0,0C0.5,5.858,3.858,2.5,8,2.5z"/>
	</g>
	<g enable-background="new    ">
		<path fill="#222222" d="M24.09,11.077c0-2.009,1.559-3.487,3.508-3.487s3.508,1.479,3.508,3.487s-1.559,3.488-3.508,3.488
			S24.09,13.086,24.09,11.077z M29.996,11.077c0-1.438-0.988-2.519-2.398-2.519c-1.408,0-2.398,1.08-2.398,2.519
			c0,1.439,0.99,2.519,2.398,2.519C29.008,13.596,29.996,12.517,29.996,11.077z"/>
		<path fill="#222222" d="M32.26,7.68h4.237v0.949h-3.168v2.818h2.888v0.949h-2.888v2.079H32.26V7.68z"/>
		<path fill="#222222" d="M37.66,7.68h4.236v0.949h-3.168v2.818h2.889v0.949h-2.889v2.079H37.66V7.68z"/>
	</g>
	<path fill="#89113A" stroke="#BFC57F" d="M17.81,16.984c1.484-0.668,2.228-2.232,2.65-3.719c0.574-2.029,0.77-4.193,0.193-6.221
		c-0.578-2.027-1.999-3.9-4.03-4.793c-1.456-0.639-3.106-0.746-4.713-0.803c-1.589-0.057-3.212-0.07-4.729,0.375
		C4.174,2.708,2.004,5.359,1.288,8.228c-0.749,2.997-0.027,6.32,2.052,8.708c2.08,2.387,5.508,3.732,8.769,3.291
		c3.26-0.44,6.195-2.726,7.092-5.687"/>
	<path fill="none" stroke="#FFFFFF" stroke-width="1.5" d="M6.944,14.42l7-7 M8.056,6.31c4.419,6.127,1.99,3.975,7,7"/>
</g>
</svg>
