<?xml version="1.0" encoding="utf-8"?>
<!-- Generator: Adobe Illustrator 16.0.0, SVG Export Plug-In . SVG Version: 6.00 Build 0)  -->
<!DOCTYPE svg PUBLIC "-//W3C//DTD SVG 1.1//EN" "http://www.w3.org/Graphics/SVG/1.1/DTD/svg11.dtd">
<svg version="1.1" id="Capa_1" xmlns="http://www.w3.org/2000/svg" xmlns:xlink="http://www.w3.org/1999/xlink" x="0px" y="0px"
	 width="49px" height="21px" viewBox="0 0 49 21" enable-background="new 0 0 49 21" xml:space="preserve">
<g>
	<g transform="translate(1)">
		<g>
			<path id="a" fill="#F2F4DB" d="M8,2h32c4.418,0,8,3.582,8,8l0,0c0,4.418-3.582,8-8,8H8c-4.418,0-8-3.582-8-8l0,0
				C0,5.582,3.582,2,8,2z"/>
		</g>
		<path fill="none" stroke="#8D9250" d="M8,2.5h32c4.143,0,7.5,3.358,7.5,7.5l0,0c0,4.143-3.357,7.5-7.5,7.5H8
			c-4.142,0-7.5-3.357-7.5-7.5l0,0C0.5,5.858,3.858,2.5,8,2.5z"/>
	</g>
	<path fill="#6C7138" stroke="#BFC57F" d="M17.81,16.508c1.484-0.667,2.228-2.232,2.65-3.72c0.574-2.028,0.77-4.192,0.193-6.22
		c-0.578-2.026-1.999-3.9-4.03-4.792c-1.456-0.64-3.106-0.746-4.713-0.803c-1.589-0.057-3.212-0.071-4.729,0.375
		C4.174,2.232,2.004,4.883,1.288,7.751c-0.749,2.997-0.027,6.319,2.052,8.707c2.08,2.388,5.508,3.733,8.769,3.292
		c3.26-0.441,6.195-2.725,7.092-5.686"/>
	<path fill="#89113A" stroke="#FFFFFF" stroke-width="1.5" d="M6.944,13.943l7-7"/>
	<path fill="none" stroke="#FFFFFF" stroke-width="1.5" d="M8.056,5.833c4.419,6.129,1.99,3.975,7,7"/>
	<g enable-background="new    ">
		<path fill="#222222" d="M24.09,10.602c0-2.009,1.559-3.487,3.508-3.487s3.508,1.479,3.508,3.487s-1.559,3.488-3.508,3.488
			S24.09,12.61,24.09,10.602z M29.996,10.602c0-1.438-0.988-2.519-2.398-2.519c-1.408,0-2.398,1.08-2.398,2.519
			c0,1.439,0.99,2.519,2.398,2.519C29.008,13.12,29.996,12.041,29.996,10.602z"/>
		<path fill="#222222" d="M32.26,7.204h4.237v0.949h-3.168v2.818h2.888v0.949h-2.888V14H32.26V7.204z"/>
		<path fill="#222222" d="M37.66,7.204h4.236v0.949h-3.168v2.818h2.889v0.949h-2.889V14H37.66V7.204z"/>
	</g>
</g>
</svg>
