<?xml version="1.0" encoding="utf-8"?>
<!-- Generator: Adobe Illustrator 16.0.0, SVG Export Plug-In . SVG Version: 6.00 Build 0)  -->
<!DOCTYPE svg PUBLIC "-//W3C//DTD SVG 1.1//EN" "http://www.w3.org/Graphics/SVG/1.1/DTD/svg11.dtd">
<svg version="1.1" id="Capa_1" xmlns="http://www.w3.org/2000/svg" xmlns:xlink="http://www.w3.org/1999/xlink" x="0px" y="0px"
	 width="49px" height="19px" viewBox="0 0 49 19" enable-background="new 0 0 49 19" xml:space="preserve">
<g>
	<g transform="translate(1 1)">
		<g>
			<path id="a" fill="#89113A" d="M8,1h32c4.418,0,8,3.582,8,8l0,0c0,4.418-3.582,8-8,8H8c-4.418,0-8-3.582-8-8l0,0
				C0,4.582,3.582,1,8,1z"/>
		</g>
		<path fill="none" stroke="#FFFFFF" d="M8,1.5h32c4.143,0,7.5,3.358,7.5,7.5l0,0c0,4.143-3.357,7.5-7.5,7.5H8
			c-4.142,0-7.5-3.357-7.5-7.5l0,0C0.5,4.858,3.858,1.5,8,1.5z"/>
	</g>
	<g>
		<path fill="#6C7138" stroke="#FFFFFF" d="M16.657,15.455c1.34-0.6,2.012-2.01,2.393-3.348c0.519-1.825,0.695-3.773,0.174-5.599
			c-0.521-1.824-1.805-3.51-3.64-4.313c-1.314-0.575-2.804-0.672-4.256-0.723c-1.434-0.051-2.9-0.064-4.27,0.337
			C4.341,2.606,2.382,4.992,1.735,7.574c-0.676,2.697-0.024,5.687,1.854,7.836c1.877,2.148,4.974,3.359,7.919,2.963
			c2.944-0.398,5.595-2.453,6.405-5.118"/>
		<path fill="#89113A" stroke="#FFFFFF" stroke-width="1.5" d="M7,14.111l7-7 M8.111,6c4.42,6.128,1.99,3.975,7,7"/>
	</g>
	<g enable-background="new    ">
		<path fill="#FFFFFF" d="M25.664,10.281c0-1.639,1.352-2.782,2.918-2.782c1.567,0,2.919,1.144,2.919,2.782
			c0,1.64-1.352,2.791-2.919,2.791C27.016,13.072,25.664,11.921,25.664,10.281z M30.014,10.281c0-0.855-0.52-1.519-1.432-1.519
			c-0.911,0-1.431,0.663-1.431,1.519s0.52,1.527,1.431,1.527C29.494,11.809,30.014,11.137,30.014,10.281z"/>
		<path fill="#FFFFFF" d="M32.184,7.563h3.693v1.224h-2.238v1.264h1.975v1.224h-1.975V13h-1.455V7.563z"/>
		<path fill="#FFFFFF" d="M36.6,7.563h3.693v1.224h-2.238v1.264h1.975v1.224h-1.975V13H36.6V7.563z"/>
	</g>
</g>
</svg>
