<?xml version="1.0" encoding="utf-8"?>
<!-- Generator: Adobe Illustrator 16.0.0, SVG Export Plug-In . SVG Version: 6.00 Build 0)  -->
<!DOCTYPE svg PUBLIC "-//W3C//DTD SVG 1.1//EN" "http://www.w3.org/Graphics/SVG/1.1/DTD/svg11.dtd">
<svg version="1.1" id="Capa_1" xmlns="http://www.w3.org/2000/svg" xmlns:xlink="http://www.w3.org/1999/xlink" x="0px" y="0px"
	 width="49px" height="21px" viewBox="0 0 49 21" enable-background="new 0 0 49 21" xml:space="preserve">
<g transform="translate(0 1)">
	<g>
		<path id="a" fill="#F2F4DB" d="M8,1h32c4.418,0,8,3.582,8,8l0,0c0,4.418-3.582,8-8,8H8c-4.418,0-8-3.582-8-8l0,0
			C0,4.582,3.582,1,8,1z"/>
	</g>
	<path fill="none" stroke="#8D9250" d="M8,1.5h32c4.143,0,7.5,3.358,7.5,7.5l0,0c0,4.143-3.357,7.5-7.5,7.5H8
		c-4.142,0-7.5-3.357-7.5-7.5l0,0C0.5,4.858,3.858,1.5,8,1.5z"/>
</g>
<path fill="#6C7138" stroke="#BFC57F" d="M44.811,16.655c1.483-0.671,2.229-2.246,2.649-3.742c0.574-2.04,0.771-4.216,0.192-6.255
	c-0.577-2.04-1.998-3.924-4.029-4.822c-1.456-0.642-3.105-0.75-4.713-0.807c-1.59-0.057-3.212-0.072-4.729,0.377
	c-3.01,0.889-5.18,3.556-5.896,6.441c-0.749,3.015-0.024,6.357,2.052,8.758c2.08,2.398,5.51,3.754,8.771,3.311
	c3.26-0.443,6.195-2.74,7.092-5.721"/>
<path fill="none" stroke="#FFFFFF" stroke-width="1.8" d="M33.402,10.313l4.195,3.375 M37,13l5-6"/>
<g enable-background="new    ">
	<path fill="#222222" d="M8.035,10.602c0-2.009,1.559-3.487,3.508-3.487c1.949,0,3.508,1.479,3.508,3.487
		c0,2.007-1.559,3.488-3.508,3.488C9.594,14.09,8.035,12.609,8.035,10.602z M13.941,10.602c0-1.438-0.989-2.519-2.398-2.519
		s-2.399,1.08-2.399,2.519s0.99,2.519,2.399,2.519S13.941,12.041,13.941,10.602z"/>
	<path fill="#222222" d="M17.204,9.532V14h-1V7.104h0.08l4.358,4.567V7.204h1V14.1h-0.08L17.204,9.532z"/>
</g>
</svg>
