<?xml version="1.0" encoding="utf-8"?>
<!-- Generator: Adobe Illustrator 16.0.0, SVG Export Plug-In . SVG Version: 6.00 Build 0)  -->
<!DOCTYPE svg PUBLIC "-//W3C//DTD SVG 1.1//EN" "http://www.w3.org/Graphics/SVG/1.1/DTD/svg11.dtd">
<svg version="1.1" id="Capa_1" xmlns="http://www.w3.org/2000/svg" xmlns:xlink="http://www.w3.org/1999/xlink" x="0px" y="0px"
	 width="52px" height="19px" viewBox="0 0 52 19" enable-background="new 0 0 52 19" xml:space="preserve">
<g transform="translate(0 1)">
	<g>
		<path id="a" fill="#89113A" d="M7.5,1h33C44.643,1,48,4.358,48,8.5l0,0c0,4.143-3.357,7.5-7.5,7.5h-33C3.358,16,0,12.643,0,8.5
			l0,0C0,4.358,3.358,1,7.5,1z"/>
	</g>
	<path fill="none" stroke="#FFFFFF" d="M7.5,1.5h33c3.866,0,7,3.134,7,7l0,0c0,3.866-3.134,7-7,7h-33c-3.866,0-7-3.134-7-7l0,0
		C0.5,4.634,3.634,1.5,7.5,1.5z"/>
</g>
<path fill="#F2F4DB" stroke="#FFFFFF" d="M47.657,15.455c1.34-0.6,2.012-2.01,2.393-3.348c0.519-1.825,0.695-3.773,0.175-5.599
	c-0.521-1.824-1.806-3.51-3.641-4.313c-1.314-0.575-2.805-0.672-4.256-0.723c-1.434-0.051-2.9-0.064-4.27,0.337
	c-2.718,0.796-4.677,3.182-5.324,5.764c-0.676,2.697-0.023,5.687,1.854,7.836c1.877,2.148,4.974,3.359,7.919,2.963
	c2.944-0.398,5.596-2.453,6.405-5.118"/>
<path fill="none" stroke="#6C7138" stroke-width="1.5" d="M38.773,10.014l3.295,3.025 M41.579,12.447l4-5"/>
<g enable-background="new    ">
	<path fill="#FFFFFF" d="M12.16,9.281c0-1.639,1.351-2.782,2.918-2.782c1.567,0,2.918,1.144,2.918,2.782
		c0,1.64-1.352,2.791-2.918,2.791C13.511,12.072,12.16,10.921,12.16,9.281z M16.51,9.281c0-0.855-0.52-1.519-1.431-1.519
		c-0.912,0-1.431,0.663-1.431,1.519s0.52,1.527,1.431,1.527C15.99,10.809,16.51,10.137,16.51,9.281z"/>
	<path fill="#FFFFFF" d="M20.047,9.289V12H18.68V6.491c0-0.048,0.024-0.088,0.112-0.017l3.415,2.814V6.563h1.367v5.518
		c0,0.063-0.024,0.088-0.112,0.016L20.047,9.289z"/>
</g>
</svg>
